<svg width="169" height="37" viewBox="0 0 169 37" fill="none" xmlns="http://www.w3.org/2000/svg">
<path d="M18.5291 36.816C17.2491 36.816 16.1291 36.544 15.1691 36C14.2411 35.488 13.7771 34.576 13.7771 33.264C13.7771 32.432 13.9851 31.504 14.4011 30.48C14.9771 31.12 15.5051 31.568 15.9851 31.824C16.4971 32.08 17.0411 32.208 17.6171 32.208C19.2171 32.208 20.4011 31.312 21.1691 29.52C21.9691 27.728 22.3691 25.744 22.3691 23.568C22.3691 19.504 20.8491 17.472 17.8091 17.472C16.9451 17.472 16.2091 17.52 15.6011 17.616L11.6651 36H4.75313L11.2811 5.472L18.3851 4.512L16.1291 15.168H16.4171C17.6331 15.168 18.7691 14.784 19.8251 14.016C20.8811 13.216 21.7291 12.224 22.3691 11.04C23.0091 9.824 23.3291 8.608 23.3291 7.392C23.3291 5.92 22.8011 4.688 21.7451 3.696C20.7211 2.704 19.1371 2.208 16.9931 2.208C15.0411 2.208 13.1371 2.656 11.2811 3.552C9.42513 4.416 7.90513 5.728 6.72113 7.488C5.56913 9.248 4.99313 11.376 4.99313 13.872C4.99313 15.056 5.10513 15.888 5.32913 16.368C5.55313 16.816 5.66513 17.072 5.66513 17.136C3.96913 17.136 2.68913 16.8 1.82513 16.128C0.961125 15.424 0.529125 14.288 0.529125 12.72C0.529125 10.544 1.34513 8.48 2.97713 6.528C4.60913 4.576 6.76913 3.008 9.45713 1.824C12.1451 0.607998 14.9771 -2.86102e-06 17.9531 -2.86102e-06C20.1931 -2.86102e-06 22.0811 0.351997 23.6171 1.056C25.1531 1.76 26.2891 2.688 27.0251 3.84C27.7931 4.992 28.1771 6.256 28.1771 7.632C28.1771 9.104 27.7611 10.528 26.9291 11.904C26.0971 13.28 24.9131 14.4 23.3771 15.264C25.2971 15.616 26.7211 16.512 27.6491 17.952C28.5771 19.36 29.0411 21.04 29.0411 22.992C29.0411 24.816 28.6891 26.8 27.9851 28.944C27.3131 31.088 26.1771 32.944 24.5771 34.512C23.0091 36.048 20.9931 36.816 18.5291 36.816ZM36.4631 36.288C34.6391 36.288 33.1191 35.664 31.9031 34.416C30.6871 33.168 30.0791 31.216 30.0791 28.56C30.0791 26.192 30.5431 23.712 31.4711 21.12C32.4311 18.496 33.8391 16.288 35.6951 14.496C37.5831 12.672 39.8231 11.76 42.4151 11.76C43.7271 11.76 44.7031 11.984 45.3431 12.432C45.9831 12.88 46.3031 13.472 46.3031 14.208V14.544L46.8311 12H53.7431L50.2871 28.32C50.1591 28.8 50.0951 29.312 50.0951 29.856C50.0951 31.232 50.7511 31.92 52.0631 31.92C52.9591 31.92 53.7271 31.504 54.3671 30.672C55.0391 29.84 55.5671 28.752 55.9511 27.408H57.9671C56.7831 30.864 55.3111 33.216 53.5511 34.464C51.8231 35.68 50.0791 36.288 48.3191 36.288C46.9751 36.288 45.8871 35.92 45.0551 35.184C44.2551 34.416 43.7751 33.312 43.6151 31.872C42.6871 33.184 41.6471 34.256 40.4951 35.088C39.3751 35.888 38.0311 36.288 36.4631 36.288ZM39.5831 31.632C40.3831 31.632 41.1671 31.264 41.9351 30.528C42.7351 29.76 43.2791 28.72 43.5671 27.408L45.8711 16.56C45.8711 16.144 45.7111 15.744 45.3911 15.36C45.0711 14.944 44.5751 14.736 43.9031 14.736C42.6231 14.736 41.4711 15.488 40.4471 16.992C39.4231 18.464 38.6231 20.256 38.0471 22.368C37.4711 24.448 37.1831 26.288 37.1831 27.888C37.1831 29.488 37.4071 30.512 37.8551 30.96C38.3351 31.408 38.9111 31.632 39.5831 31.632ZM60.6248 36.288C59.0888 36.288 57.8408 35.808 56.8808 34.848C55.9527 33.856 55.4887 32.384 55.4887 30.432C55.4887 29.632 55.6167 28.592 55.8727 27.312L61.0088 3.264L68.1128 2.304L62.5928 28.224C62.4648 28.704 62.4008 29.168 62.4008 29.616C62.4008 30.896 63.0568 31.536 64.3688 31.536C64.9448 31.536 65.4568 31.44 65.9048 31.248C65.7768 32.848 65.2008 34.096 64.1768 34.992C63.1848 35.856 62.0008 36.288 60.6248 36.288ZM77.3303 36.768C73.7143 36.768 71.0583 35.856 69.3623 34.032C67.6663 32.208 66.8183 29.184 66.8183 24.96C66.8183 21.6 67.3783 17.984 68.4983 14.112C69.6503 10.24 71.4743 6.928 73.9703 4.176C76.4983 1.392 79.6983 -2.86102e-06 83.5703 -2.86102e-06C85.9703 -2.86102e-06 87.9063 0.527998 89.3783 1.584C90.8503 2.64 91.5863 4.256 91.5863 6.432C91.5863 7.808 91.3143 8.896 90.7703 9.696C90.2263 10.464 89.3783 10.848 88.2263 10.848C87.0743 10.848 86.1623 10.432 85.4903 9.6C86.0663 9.312 86.5783 8.736 87.0263 7.872C87.4743 7.008 87.6983 6.112 87.6983 5.184C87.6983 4.32 87.4583 3.616 86.9783 3.072C86.5303 2.528 85.7943 2.256 84.7703 2.256C83.0743 2.256 81.4583 3.424 79.9223 5.76C78.3863 8.064 77.1383 10.976 76.1783 14.496C75.2503 18.016 74.7863 21.408 74.7863 24.672C74.7863 27.104 75.2023 28.96 76.0343 30.24C76.8663 31.52 78.3703 32.16 80.5463 32.16C82.4343 32.16 84.1783 31.744 85.7783 30.912C87.3783 30.08 88.7543 28.896 89.9062 27.36L91.0103 27.84C90.2103 29.856 89.0263 31.536 87.4583 32.88C85.8903 34.224 84.2103 35.216 82.4183 35.856C80.6263 36.464 78.9303 36.768 77.3303 36.768ZM94.5176 36.288C92.9816 36.288 91.7336 35.808 90.7736 34.848C89.8456 33.888 89.3816 32.448 89.3816 30.528C89.3816 29.728 89.5096 28.688 89.7656 27.408L94.9016 3.36L102.006 2.4L96.4856 28.32C96.3576 28.8 96.2936 29.312 96.2936 29.856C96.2936 30.496 96.4376 30.96 96.7256 31.248C97.0456 31.504 97.5576 31.632 98.2616 31.632C99.1896 31.632 100.054 31.248 100.854 30.48C101.654 29.68 102.23 28.656 102.582 27.408H104.598C103.414 30.864 101.894 33.216 100.038 34.464C98.1816 35.68 96.3416 36.288 94.5176 36.288ZM109.427 36.288C107.059 36.288 105.219 35.68 103.907 34.464C102.595 33.216 101.938 31.28 101.938 28.656C101.938 26.448 102.37 24.016 103.235 21.36C104.099 18.704 105.507 16.416 107.459 14.496C109.411 12.544 111.891 11.568 114.898 11.568C118.419 11.568 120.179 13.104 120.179 16.176C120.179 17.968 119.667 19.616 118.643 21.12C117.619 22.624 116.259 23.84 114.562 24.768C112.867 25.664 111.059 26.176 109.139 26.304C109.075 27.264 109.043 27.904 109.043 28.224C109.043 29.792 109.315 30.864 109.859 31.44C110.403 31.984 111.283 32.256 112.499 32.256C114.227 32.256 115.699 31.856 116.915 31.056C118.163 30.256 119.523 29.04 120.995 27.408H122.627C119.075 33.328 114.675 36.288 109.427 36.288ZM109.523 24C110.707 23.936 111.827 23.52 112.883 22.752C113.971 21.984 114.835 21.008 115.475 19.824C116.147 18.64 116.483 17.392 116.483 16.08C116.483 14.768 116.083 14.112 115.283 14.112C114.131 14.112 112.995 15.12 111.875 17.136C110.787 19.152 110.003 21.44 109.523 24ZM126.744 36.288C124.92 36.288 123.4 35.664 122.184 34.416C120.968 33.168 120.36 31.216 120.36 28.56C120.36 26.192 120.824 23.712 121.752 21.12C122.712 18.496 124.12 16.288 125.976 14.496C127.864 12.672 130.104 11.76 132.696 11.76C134.008 11.76 134.984 11.984 135.624 12.432C136.264 12.88 136.584 13.472 136.584 14.208V14.544L137.112 12H144.024L140.568 28.32C140.44 28.8 140.376 29.312 140.376 29.856C140.376 31.232 141.032 31.92 142.344 31.92C143.24 31.92 144.008 31.504 144.648 30.672C145.32 29.84 145.848 28.752 146.232 27.408H148.248C147.064 30.864 145.592 33.216 143.832 34.464C142.104 35.68 140.36 36.288 138.6 36.288C137.256 36.288 136.168 35.92 135.336 35.184C134.536 34.416 134.056 33.312 133.896 31.872C132.968 33.184 131.928 34.256 130.776 35.088C129.656 35.888 128.312 36.288 126.744 36.288ZM129.864 31.632C130.664 31.632 131.448 31.264 132.216 30.528C133.016 29.76 133.56 28.72 133.848 27.408L136.152 16.56C136.152 16.144 135.992 15.744 135.672 15.36C135.352 14.944 134.856 14.736 134.184 14.736C132.904 14.736 131.752 15.488 130.728 16.992C129.704 18.464 128.904 20.256 128.328 22.368C127.752 24.448 127.464 26.288 127.464 27.888C127.464 29.488 127.688 30.512 128.136 30.96C128.616 31.408 129.192 31.632 129.864 31.632ZM162.762 36.288C161.066 36.288 159.834 35.776 159.066 34.752C158.298 33.728 157.914 32.432 157.914 30.864C157.914 30.192 157.994 29.44 158.154 28.608C158.314 27.744 158.474 26.912 158.634 26.112C158.826 25.312 158.954 24.8 159.018 24.576C159.274 23.456 159.514 22.352 159.738 21.264C159.962 20.176 160.074 19.296 160.074 18.624C160.074 16.992 159.498 16.176 158.346 16.176C157.514 16.176 156.778 16.592 156.138 17.424C155.498 18.224 154.986 19.28 154.602 20.592L151.338 36H144.426L149.514 12H156.426L155.898 14.496C157.498 12.704 159.37 11.808 161.514 11.808C163.146 11.808 164.442 12.256 165.402 13.152C166.362 14.048 166.842 15.408 166.842 17.232C166.842 18.16 166.73 19.2 166.506 20.352C166.282 21.472 165.962 22.848 165.546 24.48C165.29 25.472 165.05 26.448 164.826 27.408C164.634 28.336 164.538 29.072 164.538 29.616C164.538 30.256 164.682 30.752 164.97 31.104C165.258 31.456 165.754 31.632 166.458 31.632C167.226 31.632 167.754 31.536 168.042 31.344C167.85 32.976 167.258 34.208 166.266 35.04C165.306 35.872 164.138 36.288 162.762 36.288Z" fill="#04684B" fill-opacity="0.94"/>
</svg>
