<svg width="1280" height="83" viewBox="0 0 1280 83" fill="none" xmlns="http://www.w3.org/2000/svg">
<g opacity="0.6">
<path d="M21.3558 65.1387C20.9581 65.5391 20.6535 66.0223 20.4638 66.5538C20.274 67.0854 20.2038 67.6523 20.2581 68.2142L20.2392 68.1953C20.295 68.8566 20.2058 69.5222 19.978 70.1455C19.7502 70.7688 19.3891 71.3349 18.92 71.8042C18.451 72.2735 17.8852 72.6347 17.2622 72.8627C16.6391 73.0906 15.9739 73.1798 15.3129 73.124L15.3318 73.1429C14.5411 73.0692 13.7469 73.2414 13.0576 73.6359C12.3683 74.0303 11.8173 74.6279 11.4799 75.3471C11.1424 76.0664 11.0349 76.8722 11.172 77.6548C11.3091 78.4374 11.6841 79.1586 12.2459 79.7202C12.8076 80.2817 13.5289 80.6562 14.3112 80.7927C15.0935 80.9291 15.8989 80.8208 16.6174 80.4826C17.336 80.1443 17.9328 79.5926 18.3264 78.9025C18.7201 78.2125 18.8914 77.4178 18.8171 76.6268L18.8371 76.6457C18.7813 75.9843 18.8704 75.3188 19.0982 74.6954C19.3261 74.0721 19.6871 73.5061 20.1562 73.0368C20.6253 72.5675 21.191 72.2062 21.8141 71.9783C22.4371 71.7503 23.1023 71.6611 23.7633 71.717L23.7434 71.6981C24.3893 71.7562 25.0394 71.6502 25.6335 71.39C26.2276 71.1298 26.7464 70.7238 27.1419 70.2096C27.5373 69.6954 27.7967 69.0896 27.8958 68.4484C27.995 67.8072 27.9308 67.1513 27.7091 66.5416C27.4874 65.9318 27.1155 65.3879 26.6278 64.9602C26.1401 64.5326 25.5524 64.235 24.9192 64.0951C24.2859 63.9552 23.6276 63.9775 23.0052 64.16C22.3829 64.3424 21.8166 64.679 21.359 65.1387H21.3558Z" fill="#1D2130"/>
<path d="M13.6137 70.6669L13.5938 70.648C14.1556 70.7047 14.723 70.6357 15.2549 70.446C15.7868 70.2564 16.2699 69.9509 16.6694 69.5516C17.0688 69.1523 17.3745 68.6691 17.5645 68.1371C17.7544 67.6051 17.8238 67.0375 17.7676 66.4753L17.7875 66.4942C17.7317 65.8329 17.8209 65.1673 18.0487 64.544C18.2765 63.9207 18.6376 63.3546 19.1067 62.8853C19.5757 62.416 20.1415 62.0548 20.7645 61.8268C21.3876 61.5989 22.0528 61.5097 22.7138 61.5655L22.6939 61.5466C23.4846 61.6209 24.2791 61.4494 24.9688 61.0553C25.6585 60.6613 26.21 60.064 26.5479 59.3449C26.8859 58.6258 26.9939 57.8199 26.8572 57.0371C26.7205 56.2543 26.3458 55.5328 25.7842 54.9709C25.2226 54.409 24.5014 54.0341 23.719 53.8973C22.9366 53.7606 22.1311 53.8687 21.4123 54.2068C20.6936 54.5449 20.0966 55.0966 19.7027 55.7867C19.3089 56.4768 19.1374 57.2716 19.2117 58.0627L19.1928 58.0428C19.2488 58.7042 19.1598 59.3698 18.932 59.9932C18.7042 60.6166 18.3432 61.1828 17.8741 61.6521C17.405 62.1214 16.8391 62.4827 16.216 62.7106C15.5929 62.9384 14.9276 63.0275 14.2665 62.9715L14.2854 62.9914C13.7236 62.9348 13.1562 63.0038 12.6243 63.1934C12.0924 63.383 11.6093 63.6885 11.2098 64.0879C10.8104 64.4872 10.5047 64.9703 10.3147 65.5024C10.1248 66.0344 10.0554 66.602 10.1116 67.1641L10.0927 67.1452C10.1483 67.8065 10.0591 68.472 9.83118 69.0952C9.60328 69.7185 9.24222 70.2845 8.77319 70.7537C8.30416 71.223 7.73844 71.5842 7.11551 71.8123C6.49258 72.0403 5.82743 72.1296 5.16645 72.0739L5.18534 72.0928C4.39458 72.0185 3.60015 72.1901 2.91043 72.5841C2.2207 72.9781 1.66925 73.5755 1.3313 74.2946C0.993348 75.0137 0.885342 75.8196 1.02202 76.6024C1.15869 77.3852 1.53339 78.1067 2.09501 78.6686C2.65662 79.2305 3.37781 79.6054 4.16021 79.7421C4.94261 79.8788 5.74812 79.7708 6.46688 79.4327C7.18563 79.0945 7.78264 78.5428 8.17648 77.8528C8.57031 77.1627 8.74179 76.3679 8.66753 75.5767L8.68747 75.5956C8.63167 74.9343 8.7208 74.2687 8.94864 73.6454C9.17647 73.0221 9.53753 72.456 10.0066 71.9867C10.4757 71.5174 11.0415 71.1562 11.6645 70.9282C12.2875 70.7003 12.9527 70.6111 13.6137 70.6669Z" fill="#1D2130"/>
<path d="M6.58015 68.5596C6.97793 68.1593 7.28247 67.6761 7.47205 67.1445C7.66163 66.6129 7.73156 66.0459 7.67686 65.4842L7.6968 65.5031C7.64096 64.8415 7.73013 64.1758 7.95809 63.5523C8.18605 62.9288 8.54729 62.3626 9.0166 61.8933C9.48591 61.4239 10.052 61.0627 10.6752 60.8349C11.2985 60.6071 11.964 60.5182 12.6252 60.5744L12.6052 60.5555C13.3957 60.6295 14.1898 60.4579 14.8792 60.0639C15.5686 59.6699 16.1198 59.0727 16.4575 58.3538C16.7953 57.635 16.9032 56.8293 16.7665 56.0469C16.6299 55.2644 16.2553 54.5431 15.6939 53.9814C15.1325 53.4197 14.4115 53.045 13.6294 52.9082C12.8473 52.7715 12.0421 52.8794 11.3236 53.2173C10.605 53.5553 10.0082 54.1067 9.61437 54.7964C9.22057 55.4862 9.049 56.2807 9.12305 57.0716L9.10416 57.0527C9.15996 57.714 9.07083 58.3796 8.84299 59.0029C8.61516 59.6262 8.2541 60.1923 7.78503 60.6616C7.31596 61.1309 6.75017 61.4921 6.12715 61.7201C5.50413 61.948 4.8389 62.0372 4.17789 61.9814L4.19677 62.0003C3.55089 61.9423 2.90084 62.0484 2.30685 62.3087C1.71286 62.569 1.19416 62.9751 0.79881 63.4894C0.403458 64.0037 0.144249 64.6095 0.0452039 65.2507C-0.0538415 65.8919 0.0104804 66.5477 0.23221 67.1574C0.453939 67.767 0.825902 68.3109 1.31363 68.7385C1.80136 69.166 2.38907 69.4635 3.0223 69.6034C3.65553 69.7432 4.3138 69.7208 4.9361 69.5384C5.55841 69.3559 6.12461 69.0193 6.58225 68.5596H6.58015Z" fill="#1D2130"/>
<path d="M39.09 58.0869H42.2069V73.2625H39.09V58.0869Z" fill="#1D2130"/>
<path d="M43.9722 68.0661C43.9678 66.9755 44.2871 65.9082 44.8895 64.9993C45.4919 64.0904 46.3504 63.3808 47.3562 62.9604C48.362 62.54 49.4699 62.4278 50.5395 62.6379C51.6092 62.848 52.5924 63.3709 53.3647 64.1405C54.1371 64.9102 54.6637 65.8918 54.878 66.9611C55.0923 68.0304 54.9845 69.1393 54.5684 70.1473C54.1522 71.1552 53.4465 72.017 52.5404 72.6233C51.6344 73.2297 50.5689 73.5534 49.4788 73.5534C48.7553 73.5616 48.0373 73.4255 47.3669 73.1529C46.6965 72.8804 46.0872 72.4769 45.5745 71.966C45.0618 71.4551 44.656 70.847 44.3809 70.1774C44.1058 69.5078 43.9668 68.79 43.9722 68.0661ZM51.8685 68.0661C51.8555 67.596 51.7043 67.1402 51.4338 66.7556C51.1632 66.371 50.7854 66.0748 50.3475 65.9039C49.9096 65.733 49.4311 65.695 48.9718 65.7947C48.5124 65.8944 48.0927 66.1274 47.7649 66.4645C47.4372 66.8016 47.2161 67.2279 47.1292 67.69C47.0423 68.1522 47.0935 68.6297 47.2764 69.0629C47.4593 69.4961 47.7657 69.8658 48.1575 70.1257C48.5492 70.3856 49.0088 70.5242 49.4788 70.5241C49.8007 70.5327 50.1209 70.4745 50.4192 70.3531C50.7175 70.2318 50.9874 70.0499 51.2119 69.8189C51.4365 69.588 51.6107 69.313 51.7237 69.0113C51.8367 68.7096 51.886 68.3878 51.8685 68.0661Z" fill="#1D2130"/>
<path d="M67.4082 62.8686V72.7386C67.4082 76.2309 64.6858 77.7072 61.9225 77.7072C60.9496 77.78 59.9754 77.5834 59.1068 77.1389C58.2382 76.6944 57.5087 76.0191 56.9983 75.1872L59.6577 73.649C59.8722 74.0826 60.214 74.4404 60.6373 74.6744C61.0606 74.9084 61.5453 75.0074 62.0264 74.9583C62.3339 75.0009 62.647 74.9738 62.9427 74.879C63.2383 74.7842 63.5088 74.6241 63.7342 74.4106C63.9596 74.1971 64.1342 73.9355 64.2449 73.6454C64.3557 73.3553 64.3998 73.0439 64.3741 72.7344V71.7841C64.0091 72.231 63.5445 72.586 63.0176 72.8206C62.4907 73.0553 61.9161 73.1632 61.34 73.1355C59.9692 73.0922 58.669 72.517 57.7146 71.5316C56.7602 70.5461 56.2265 69.2278 56.2265 67.8556C56.2265 66.4834 56.7602 65.165 57.7146 64.1796C58.669 63.1941 59.9692 62.6189 61.34 62.5756C61.9161 62.548 62.4907 62.6558 63.0176 62.8905C63.5445 63.1252 64.0091 63.4802 64.3741 63.927V62.8665L67.4082 62.8686ZM64.3752 67.8571C64.3961 67.3546 64.2662 66.8572 64.0023 66.4291C63.7383 66.001 63.3523 65.6617 62.894 65.4549C62.4357 65.2482 61.926 65.1833 61.4306 65.2688C60.9351 65.3543 60.4766 65.5861 60.1139 65.9346C59.7513 66.283 59.5012 66.732 59.3958 67.2238C59.2904 67.7157 59.3345 68.2278 59.5225 68.6943C59.7105 69.1609 60.0337 69.5604 60.4506 69.8416C60.8674 70.1228 61.3589 70.2728 61.8616 70.2721C62.1891 70.295 62.5178 70.249 62.8264 70.1371C63.1351 70.0251 63.4169 69.8498 63.6536 69.6223C63.8904 69.3948 64.077 69.1202 64.2012 68.8162C64.3255 68.5121 64.3847 68.1855 64.3752 67.8571Z" fill="#1D2130"/>
<path d="M69.1734 68.0661C69.169 66.9755 69.4882 65.9082 70.0907 64.9993C70.6931 64.0904 71.5516 63.3808 72.5574 62.9604C73.5632 62.54 74.6711 62.4278 75.7407 62.6379C76.8103 62.848 77.7936 63.3709 78.5659 64.1405C79.3382 64.9102 79.8649 65.8918 80.0792 66.9611C80.2934 68.0304 80.1857 69.1393 79.7695 70.1473C79.3534 71.1552 78.6476 72.017 77.7416 72.6233C76.8356 73.2297 75.77 73.5534 74.68 73.5534C73.9564 73.5616 73.2385 73.4255 72.5681 73.1529C71.8977 72.8804 71.2884 72.4769 70.7757 71.966C70.263 71.4551 69.8572 70.847 69.5821 70.1774C69.307 69.5078 69.168 68.79 69.1734 68.0661ZM77.0697 68.0661C77.0567 67.596 76.9055 67.1402 76.6349 66.7556C76.3644 66.371 75.9866 66.0748 75.5487 65.9039C75.1108 65.733 74.6323 65.695 74.1729 65.7947C73.7136 65.8944 73.2938 66.1274 72.9661 66.4645C72.6384 66.8016 72.4172 67.2279 72.3303 67.69C72.2435 68.1522 72.2946 68.6297 72.4775 69.0629C72.6604 69.4961 72.9669 69.8658 73.3586 70.1257C73.7504 70.3856 74.21 70.5242 74.68 70.5241C75.0019 70.5327 75.3221 70.4745 75.6204 70.3531C75.9187 70.2318 76.1886 70.0499 76.4131 69.8189C76.6376 69.588 76.8119 69.313 76.9249 69.0113C77.0379 68.7096 77.0872 68.3878 77.0697 68.0661Z" fill="#1D2130"/>
<path d="M81.6402 60.0829C81.6402 59.7129 81.7499 59.3511 81.9554 59.0434C82.1609 58.7357 82.4529 58.4959 82.7947 58.3543C83.1364 58.2126 83.5124 58.1756 83.8752 58.2478C84.238 58.32 84.5712 58.4982 84.8328 58.7599C85.0943 59.0215 85.2724 59.3549 85.3446 59.7179C85.4167 60.0809 85.3797 60.4571 85.2382 60.799C85.0966 61.1409 84.8569 61.4331 84.5494 61.6387C84.2418 61.8443 83.8802 61.954 83.5103 61.954C83.0159 61.9491 82.543 61.7504 82.1934 61.4006C81.8437 61.0507 81.6451 60.5777 81.6402 60.0829ZM81.955 62.8686H85.073V73.2636H81.9508L81.955 62.8686Z" fill="#1D2130"/>
<path d="M98.5317 68.0661C98.5677 68.7531 98.4676 69.4404 98.2372 70.0886C98.0068 70.7367 97.6506 71.3329 97.1891 71.8429C96.7275 72.3528 96.1698 72.7665 95.548 73.06C94.9261 73.3536 94.2524 73.5212 93.5655 73.5534C92.9879 73.5849 92.4105 73.4874 91.8752 73.2681C91.3399 73.0487 90.8601 72.7129 90.4706 72.285V77.4205H87.3536V62.8686H90.4706V63.8451C90.8603 63.4175 91.3401 63.082 91.8754 62.8628C92.4107 62.6436 92.988 62.5462 93.5655 62.5777C94.2525 62.6097 94.9264 62.7773 95.5484 63.0709C96.1704 63.3644 96.7282 63.7782 97.1898 64.2883C97.6513 64.7984 98.0075 65.3947 98.2378 66.0431C98.4681 66.6914 98.568 67.379 98.5317 68.0661ZM95.4147 68.0661C95.4025 67.5796 95.2472 67.1075 94.9682 66.7089C94.6891 66.3103 94.2988 66.0029 93.846 65.8251C93.3932 65.6474 92.898 65.6072 92.4225 65.7096C91.947 65.812 91.5122 66.0525 91.1727 66.4009C90.8331 66.7493 90.6037 67.1902 90.5134 67.6684C90.423 68.1466 90.4756 68.6408 90.6646 69.0892C90.8536 69.5376 91.1705 69.9203 91.5758 70.1893C91.9811 70.4584 92.4568 70.6019 92.9432 70.6018C93.2771 70.6167 93.6104 70.5608 93.9212 70.4377C94.232 70.3147 94.5133 70.1273 94.7467 69.8879C94.9801 69.6485 95.1602 69.3624 95.2753 69.0484C95.3905 68.7345 95.438 68.3997 95.4147 68.0661Z" fill="#1D2130"/>
<path d="M108.15 70.1441C108.15 72.5349 106.073 73.5534 103.829 73.5534C102.923 73.6356 102.012 73.4437 101.216 73.0027C100.42 72.5617 99.7736 71.8918 99.3618 71.0796L102.062 69.5413C102.171 69.9168 102.406 70.2434 102.727 70.4666C103.048 70.6898 103.435 70.7961 103.825 70.7677C104.572 70.7677 104.947 70.5388 104.947 70.1241C104.947 68.9796 99.8351 69.5834 99.8351 65.9871C99.8351 63.7202 101.747 62.5778 103.908 62.5778C104.72 62.552 105.525 62.7448 106.237 63.136C106.95 63.5271 107.544 64.1023 107.959 64.8017L105.3 66.236C105.183 65.9637 104.989 65.7318 104.742 65.5691C104.494 65.4065 104.204 65.3203 103.908 65.3214C103.368 65.3214 103.035 65.5314 103.035 65.9031C103.039 67.0886 108.15 66.2979 108.15 70.1441Z" fill="#1D2130"/>
<path d="M119.536 62.8686V73.2636H116.419V72.2861C116.059 72.7174 115.603 73.0573 115.087 73.2778C114.57 73.4983 114.009 73.5931 113.449 73.5545C111.35 73.5545 109.566 72.0582 109.566 69.2495V62.8686H112.683V68.7927C112.657 69.0403 112.685 69.2906 112.765 69.5261C112.846 69.7617 112.977 69.977 113.149 70.1568C113.321 70.3367 113.53 70.4769 113.761 70.5678C113.993 70.6586 114.242 70.6978 114.49 70.6827C115.633 70.6827 116.422 70.0181 116.422 68.5418V62.8718L119.536 62.8686Z" fill="#1D2130"/>
<path d="M137.409 66.8807V73.2626H134.292V67.1505C134.292 66.111 133.793 65.4464 132.796 65.4464C131.757 65.4464 131.175 66.174 131.175 67.4004V73.2626H128.059V67.1505C128.059 66.111 127.56 65.4464 126.562 65.4464C125.523 65.4464 124.942 66.174 124.942 67.4004V73.2626H121.825V62.8676H124.942V63.8231C125.265 63.3992 125.689 63.063 126.176 62.8453C126.662 62.6276 127.195 62.5353 127.726 62.5767C128.26 62.5506 128.791 62.6632 129.268 62.9036C129.744 63.1439 130.151 63.5037 130.448 63.948C130.793 63.4832 131.251 63.1136 131.777 62.8738C132.304 62.634 132.883 62.5318 133.461 62.5767C135.846 62.5778 137.409 64.2819 137.409 66.8807Z" fill="#1D2130"/>
<path d="M140.045 62.8046C141.323 62.8046 142.358 61.7685 142.358 60.4904C142.358 59.2123 141.323 58.1762 140.045 58.1762C138.768 58.1762 137.732 59.2123 137.732 60.4904C137.732 61.7685 138.768 62.8046 140.045 62.8046Z" fill="#1D2130"/>
</g>
<g opacity="0.6">
<path d="M271.649 58.635H274.814V73.952H271.649V58.635Z" fill="#1D2130"/>
<path d="M276.587 68.705C276.587 67.603 276.912 66.5258 277.522 65.61C278.132 64.6941 278.999 63.9809 280.014 63.5606C281.028 63.1404 282.143 63.032 283.218 63.2494C284.294 63.4667 285.281 63.9999 286.054 64.7813C286.827 65.5628 287.353 66.5573 287.563 67.6389C287.773 68.7205 287.659 69.8405 287.235 70.8568C286.81 71.8731 286.095 72.74 285.18 73.3476C284.265 73.9553 283.191 74.2763 282.094 74.27C281.367 74.2757 280.645 74.1354 279.973 73.8574C279.3 73.5793 278.689 73.1691 278.176 72.6508C277.663 72.1325 277.258 71.5165 276.985 70.8389C276.712 70.1613 276.577 69.4359 276.587 68.705ZM284.521 68.705C284.509 68.2299 284.357 67.769 284.085 67.3801C283.813 66.9911 283.434 66.6912 282.993 66.518C282.552 66.3448 282.071 66.3059 281.608 66.4062C281.146 66.5066 280.723 66.7416 280.393 67.082C280.063 67.4224 279.84 67.853 279.752 68.32C279.665 68.787 279.716 69.2696 279.9 69.7076C280.083 70.1455 280.392 70.5192 280.786 70.7821C281.18 71.0449 281.642 71.1852 282.115 71.1854C282.437 71.1917 282.757 71.1312 283.055 71.0077C283.353 70.8841 283.622 70.7002 283.846 70.4674C284.07 70.2346 284.243 69.958 284.356 69.6547C284.468 69.3515 284.517 69.0282 284.5 68.705H284.521Z" fill="#1D2130"/>
<path d="M300.126 63.458V73.4326C300.126 76.9518 297.383 78.4464 294.608 78.4464C293.629 78.5271 292.647 78.3317 291.773 77.8823C290.899 77.4328 290.167 76.7471 289.66 75.9024L292.329 74.3548C292.545 74.793 292.889 75.1545 293.315 75.3912C293.741 75.6279 294.229 75.7286 294.713 75.6798C295.022 75.718 295.335 75.6872 295.631 75.5896C295.926 75.4921 296.196 75.3302 296.422 75.1154C296.648 74.9007 296.824 74.6385 296.937 74.3476C297.05 74.0567 297.098 73.7442 297.077 73.4326V72.468C296.709 72.9167 296.241 73.2729 295.712 73.5084C295.183 73.7439 294.606 73.8523 294.028 73.8248C292.629 73.8248 291.287 73.2664 290.297 72.2725C289.308 71.2785 288.752 69.9305 288.752 68.5248C288.752 67.1192 289.308 65.7711 290.297 64.7771C291.287 63.7832 292.629 63.2248 294.028 63.2248C294.606 63.1973 295.183 63.3057 295.712 63.5412C296.241 63.7767 296.709 64.1329 297.077 64.5816V63.5216L300.126 63.458ZM297.077 68.493C297.098 67.9859 296.968 67.484 296.702 67.0519C296.437 66.6199 296.05 66.2774 295.589 66.0685C295.129 65.8596 294.616 65.7938 294.119 65.8797C293.621 65.9655 293.16 66.1991 292.795 66.5503C292.43 66.9015 292.178 67.3542 292.072 67.8504C291.965 68.3466 292.009 68.8634 292.197 69.3345C292.385 69.8055 292.709 70.2093 293.127 70.4938C293.546 70.7783 294.039 70.9306 294.545 70.931C294.874 70.9549 295.205 70.909 295.516 70.7963C295.827 70.6837 296.111 70.5068 296.35 70.277C296.588 70.0473 296.776 69.7698 296.902 69.4625C297.027 69.1552 297.087 68.8249 297.077 68.493Z" fill="#1D2130"/>
<path d="M301.909 68.705C301.909 67.6039 302.234 66.5275 302.844 65.6121C303.453 64.6968 304.319 63.9835 305.331 63.5626C306.344 63.1417 307.458 63.0321 308.533 63.2477C309.608 63.4633 310.595 63.9944 311.369 64.7737C312.144 65.5531 312.67 66.5456 312.883 67.6258C313.095 68.706 312.984 69.8253 312.563 70.842C312.142 71.8587 311.431 72.7271 310.519 73.3373C309.606 73.9475 308.534 74.2721 307.438 74.27C306.709 74.2771 305.986 74.1379 305.312 73.8606C304.637 73.5834 304.024 73.1735 303.509 72.6552C302.994 72.1369 302.587 71.5205 302.313 70.8422C302.038 70.1639 301.901 69.4373 301.909 68.705ZM309.844 68.705C309.831 68.2295 309.679 67.7682 309.407 67.379C309.135 66.9898 308.754 66.69 308.313 66.5171C307.872 66.3442 307.39 66.3059 306.927 66.4071C306.465 66.5083 306.042 66.7444 305.712 67.0858C305.383 67.4273 305.161 67.8589 305.074 68.3265C304.987 68.7942 305.04 69.2772 305.225 69.7149C305.411 70.1526 305.721 70.5257 306.116 70.7872C306.512 71.0488 306.975 71.1873 307.449 71.1854C307.771 71.1917 308.091 71.1312 308.388 71.0077C308.686 70.8841 308.955 70.7002 309.179 70.4674C309.403 70.2346 309.577 69.958 309.689 69.6547C309.802 69.3515 309.851 69.0282 309.833 68.705H309.844Z" fill="#1D2130"/>
<path d="M314.434 60.649C314.434 60.2758 314.544 59.911 314.75 59.6007C314.956 59.2904 315.25 59.0486 315.593 58.9058C315.936 58.763 316.314 58.7256 316.678 58.7984C317.042 58.8712 317.377 59.0509 317.64 59.3148C317.902 59.5787 318.081 59.9149 318.154 60.2809C318.226 60.6469 318.189 61.0262 318.047 61.371C317.905 61.7158 317.664 62.0104 317.355 62.2178C317.046 62.4251 316.683 62.5358 316.312 62.5358C315.815 62.5302 315.341 62.3297 314.99 61.977C314.639 61.6244 314.439 61.1477 314.434 60.649ZM314.74 63.458H317.905V73.952H314.74V63.458Z" fill="#1D2130"/>
<path d="M331.453 68.705C331.488 69.4029 331.386 70.101 331.152 70.7591C330.918 71.4171 330.556 72.0222 330.088 72.5394C329.621 73.0566 329.056 73.4758 328.426 73.7728C327.796 74.0698 327.115 74.2388 326.42 74.27C325.83 74.3094 325.239 74.2146 324.691 73.9925C324.143 73.7704 323.652 73.4268 323.254 72.9874V78.1708H320.089V63.458H323.254V64.4438C323.652 64.0057 324.144 63.6637 324.692 63.4435C325.24 63.2232 325.831 63.1303 326.42 63.1718C327.112 63.2031 327.791 63.3711 328.418 63.6661C329.046 63.9611 329.609 64.3774 330.077 64.8912C330.544 65.4051 330.906 66.0063 331.142 66.6607C331.378 67.3151 331.484 68.0097 331.453 68.705ZM328.287 68.705C328.275 68.2127 328.118 67.7351 327.836 67.3319C327.555 66.9287 327.161 66.618 326.705 66.4387C326.248 66.2594 325.749 66.2195 325.27 66.324C324.791 66.4284 324.353 66.6726 324.012 67.0259C323.67 67.3792 323.44 67.8259 323.35 68.3101C323.26 68.7942 323.315 69.2942 323.506 69.7474C323.698 70.2006 324.019 70.5869 324.428 70.8578C324.838 71.1287 325.317 71.2722 325.808 71.2702C326.143 71.2845 326.478 71.2274 326.791 71.1025C327.103 70.9777 327.385 70.7879 327.619 70.5457C327.854 70.3035 328.034 70.0143 328.149 69.6971C328.264 69.3799 328.311 69.0418 328.287 68.705Z" fill="#1D2130"/>
<path d="M341.086 70.8038C341.086 73.2206 338.975 74.2488 336.739 74.2488C335.826 74.3313 334.91 74.137 334.109 73.6911C333.308 73.2451 332.658 72.568 332.244 71.7472L334.966 70.1996C335.074 70.5778 335.308 70.9074 335.628 71.1331C335.949 71.3589 336.337 71.4671 336.728 71.4398C337.477 71.4398 337.857 71.2066 337.857 70.7826C337.857 69.6272 332.719 70.242 332.719 66.6062C332.719 64.3166 334.639 63.1718 336.812 63.1718C337.639 63.1346 338.459 63.3229 339.188 63.7167C339.916 64.1105 340.524 64.6951 340.949 65.4084L338.226 66.85C338.106 66.5765 337.91 66.3439 337.661 66.1803C337.412 66.0166 337.121 65.9289 336.823 65.9278C336.274 65.9278 335.947 66.1398 335.947 66.5108C335.947 67.7192 341.086 66.9242 341.086 70.8038Z" fill="#1D2130"/>
<path d="M352.555 63.458V73.952H349.389V72.9662C349.03 73.4026 348.573 73.7479 348.056 73.9744C347.54 74.2009 346.977 74.3022 346.414 74.27C344.304 74.27 342.5 72.7542 342.5 69.924V63.458H345.665V69.447C345.64 69.6974 345.669 69.9503 345.751 70.1881C345.833 70.4259 345.966 70.643 346.139 70.8244C346.313 71.0058 346.523 71.1472 346.757 71.2388C346.99 71.3304 347.24 71.3701 347.49 71.355C348.63 71.355 349.432 70.6766 349.432 69.235V63.458H352.555Z" fill="#1D2130"/>
<path d="M370.492 67.5072V73.952H367.326V67.7828C367.326 66.7228 366.83 66.0656 365.828 66.0656C364.826 66.0656 364.193 66.797 364.193 68.0372V73.952H361.027V67.7828C361.027 66.7228 360.531 66.0656 359.529 66.0656C358.527 66.0656 357.894 66.797 357.894 68.0372V73.952H354.728V63.458H357.894V64.4226C358.221 63.9964 358.649 63.6589 359.139 63.4406C359.629 63.2222 360.166 63.1298 360.7 63.1718C361.236 63.1437 361.769 63.256 362.248 63.4976C362.727 63.7392 363.135 64.1018 363.433 64.5498C363.781 64.0817 364.241 63.7098 364.77 63.4689C365.3 63.2279 365.882 63.1257 366.461 63.1718C368.93 63.1718 370.492 64.889 370.492 67.5072Z" fill="#1D2130"/>
<path d="M252.794 55.879V51.374H238.655V82.326H252.794V77.821C249.898 77.821 247.12 76.6651 245.072 74.6077C243.024 72.5502 241.873 69.7597 241.873 66.85C241.873 63.9403 243.024 61.1498 245.072 59.0924C247.12 57.0349 249.898 55.879 252.794 55.879Z" fill="#1D2130"/>
<path d="M252.794 55.879V77.821C255.69 77.821 258.468 76.6652 260.516 74.6077C262.564 72.5502 263.714 69.7597 263.714 66.85C263.714 63.9403 262.564 61.1498 260.516 59.0924C258.468 57.0349 255.69 55.879 252.794 55.879Z" fill="#1D2130"/>
<path d="M373.151 63.3944C374.433 63.3944 375.472 62.3503 375.472 61.0624C375.472 59.7745 374.433 58.7304 373.151 58.7304C371.869 58.7304 370.829 59.7745 370.829 61.0624C370.829 62.3503 371.869 63.3944 373.151 63.3944Z" fill="#1D2130"/>
</g>
<g opacity="0.6">
<path d="M508.063 60.6345H511.229V73.371H508.063V60.6345ZM512.484 68.562C512.484 65.412 514.426 63.5325 517.422 63.5325C520.419 63.5325 522.36 65.412 522.36 68.562C522.36 71.712 520.461 73.602 517.422 73.602C514.383 73.602 512.484 71.7645 512.484 68.562ZM519.184 68.562C519.184 66.8295 518.498 65.811 517.422 65.811C516.346 65.811 515.671 66.861 515.671 68.562C515.671 70.263 516.335 71.292 517.422 71.292C518.509 71.292 519.184 70.326 519.184 68.5725V68.562ZM523.552 73.9905H526.591C526.736 74.3102 526.98 74.5749 527.288 74.7452C527.596 74.9155 527.951 74.9822 528.3 74.9355C529.503 74.9355 530.136 74.2845 530.136 73.3395V71.5755H530.073C529.821 72.1161 529.412 72.5692 528.898 72.8761C528.385 73.1831 527.791 73.3298 527.193 73.2975C524.882 73.2975 523.352 71.544 523.352 68.5305C523.352 65.517 524.808 63.6165 527.235 63.6165C527.852 63.5924 528.461 63.7566 528.981 64.0868C529.502 64.4171 529.909 64.8978 530.147 65.4645V63.711H533.312V73.266C533.312 75.5655 531.276 76.9935 528.269 76.9935C525.473 76.9935 523.732 75.744 523.552 74.001V73.9905ZM530.147 68.5515C530.147 67.0185 529.44 66.0525 528.321 66.0525C527.203 66.0525 526.517 67.008 526.517 68.5515C526.517 70.095 527.193 70.9665 528.321 70.9665C529.45 70.9665 530.147 70.116 530.147 68.562V68.5515ZM534.504 68.5515C534.504 65.4015 536.446 63.522 539.442 63.522C542.439 63.522 544.391 65.4015 544.391 68.5515C544.391 71.7015 542.492 73.5915 539.442 73.5915C536.393 73.5915 534.504 71.7645 534.504 68.562V68.5515ZM541.204 68.5515C541.204 66.819 540.519 65.8005 539.442 65.8005C538.366 65.8005 537.744 66.861 537.744 68.5725C537.744 70.284 538.408 71.3025 539.485 71.3025C540.561 71.3025 541.204 70.326 541.204 68.5725V68.5515ZM545.594 61.422C545.585 61.104 545.672 60.7906 545.843 60.5217C546.014 60.2528 546.261 60.0405 546.553 59.9116C546.846 59.7827 547.17 59.7431 547.485 59.7977C547.8 59.8524 548.091 59.9989 548.322 60.2186C548.554 60.4383 548.714 60.7214 548.783 61.032C548.853 61.3426 548.828 61.6667 548.712 61.9631C548.596 62.2596 548.394 62.5151 548.132 62.6973C547.87 62.8795 547.559 62.9802 547.24 62.9865C547.028 63.001 546.815 62.9717 546.615 62.9005C546.415 62.8293 546.232 62.7178 546.078 62.5728C545.923 62.4279 545.8 62.2527 545.717 62.0582C545.634 61.8638 545.592 61.6544 545.594 61.443V61.422ZM545.594 63.732H548.759V73.371H545.594V63.732ZM560.249 68.5515C560.249 71.7015 558.846 73.497 556.44 73.497C555.823 73.5364 555.209 73.3863 554.681 73.0671C554.153 72.7479 553.735 72.2748 553.486 71.712H553.423V76.458H550.257V63.711H553.423V65.433H553.486C553.724 64.8609 554.133 64.3755 554.658 64.043C555.183 63.7105 555.798 63.5469 556.419 63.5745C558.846 63.6165 560.291 65.4225 560.291 68.5725L560.249 68.5515ZM557.084 68.5515C557.084 67.0185 556.377 66.042 555.269 66.042C554.161 66.042 553.454 67.029 553.444 68.5515C553.433 70.074 554.161 71.0505 555.269 71.0505C556.377 71.0505 557.084 70.095 557.084 68.5725V68.5515ZM565.683 63.5115C568.31 63.5115 569.904 64.7505 569.977 66.735H567.097C567.097 66.0525 566.527 65.622 565.651 65.622C564.776 65.622 564.385 65.958 564.385 66.4515C564.385 66.945 564.733 67.1025 565.44 67.2495L567.466 67.659C569.397 68.0685 570.22 68.8455 570.22 70.305C570.22 72.3 568.395 73.581 565.704 73.581C563.014 73.581 561.252 72.3 561.114 70.3365H564.164C564.259 71.0505 564.828 71.4705 565.757 71.4705C566.685 71.4705 567.107 71.166 567.107 70.662C567.107 70.158 566.812 70.053 566.052 69.8955L564.227 69.507C562.338 69.1185 561.347 68.121 561.347 66.651C561.368 64.761 563.066 63.5325 565.683 63.5325V63.5115ZM580.782 73.35H577.732V71.5545H577.669C577.502 72.1573 577.132 72.685 576.621 73.0498C576.111 73.4146 575.49 73.5946 574.863 73.56C574.382 73.5872 573.9 73.5114 573.452 73.3376C573.003 73.1639 572.596 72.8963 572.26 72.5529C571.924 72.2094 571.666 71.7983 571.503 71.3471C571.341 70.8959 571.277 70.4152 571.317 69.9375V63.711H574.483V69.213C574.483 70.3575 575.074 70.9665 576.055 70.9665C576.285 70.967 576.512 70.9185 576.722 70.8243C576.932 70.7301 577.119 70.5924 577.271 70.4204C577.423 70.2483 577.536 70.046 577.603 69.8269C577.67 69.6078 577.689 69.377 577.659 69.15V63.711H580.824L580.782 73.35ZM582.312 63.711H585.371V65.5695H585.435C585.603 64.9747 585.964 64.452 586.463 64.0834C586.961 63.7148 587.568 63.5211 588.189 63.5325C588.82 63.4822 589.448 63.6703 589.946 64.0594C590.445 64.4485 590.778 65.0101 590.879 65.6325H590.942C591.134 65.0035 591.53 64.4557 592.069 64.0755C592.608 63.6953 593.258 63.5043 593.918 63.5325C594.348 63.5181 594.777 63.594 595.176 63.7553C595.575 63.9165 595.936 64.1595 596.234 64.4685C596.533 64.7775 596.763 65.1455 596.909 65.5486C597.055 65.9518 597.115 66.381 597.083 66.8085V73.371H593.918V67.6485C593.918 66.5985 593.443 66.1155 592.557 66.1155C592.359 66.1138 592.163 66.1544 591.983 66.2344C591.802 66.3144 591.641 66.432 591.51 66.5793C591.379 66.7266 591.281 66.9001 591.224 67.0882C591.166 67.2762 591.149 67.4745 591.175 67.6695V73.371H588.168V67.6065C588.168 66.6405 587.693 66.1155 586.828 66.1155C586.628 66.1156 586.43 66.1578 586.248 66.2394C586.066 66.3211 585.903 66.4402 585.77 66.5891C585.637 66.7379 585.538 66.913 585.478 67.1029C585.419 67.2927 585.4 67.493 585.424 67.6905V73.371H582.259L582.312 63.711Z" fill="#1D2130"/>
<path d="M499.211 61.2121C498.674 59.9902 497.963 58.8516 497.101 57.8311C495.826 56.2774 494.234 55.0101 492.431 54.1126C490.629 53.2151 488.655 52.7077 486.641 52.6238C484.627 52.5399 482.618 52.8814 480.746 53.6258C478.875 54.3703 477.182 55.5008 475.781 56.9429C474.38 58.3851 473.302 60.1062 472.617 61.9929C471.932 63.8797 471.657 65.8894 471.809 67.8897C471.961 69.89 472.537 71.8355 473.499 73.5983C474.462 75.3611 475.788 76.9011 477.391 78.1171C478.42 78.9129 479.557 79.5598 480.768 80.0386C482.465 80.7309 484.282 81.0876 486.117 81.0886C489.904 81.0802 493.534 79.5779 496.21 76.9109C498.886 74.244 500.39 70.6299 500.393 66.8611C500.395 64.917 499.993 62.9935 499.211 61.2121ZM486.106 55.5106C487.754 55.5104 489.382 55.8688 490.876 56.5606C490.511 56.7172 490.128 56.8266 489.736 56.8861C488.445 57.072 487.249 57.6684 486.327 58.5862C485.405 59.504 484.806 60.694 484.619 61.9786C484.537 62.699 484.207 63.3692 483.687 63.8761C483.166 64.383 482.485 64.6956 481.759 64.7611C480.468 64.947 479.273 65.5434 478.35 66.4612C477.428 67.379 476.829 68.569 476.642 69.8536C476.579 70.5386 476.285 71.1823 475.808 71.6806C474.986 69.9515 474.617 68.0435 474.735 66.1342C474.853 64.2248 475.454 62.3762 476.483 60.7603C477.511 59.1444 478.934 57.8138 480.619 56.8922C482.303 55.9707 484.195 55.4881 486.117 55.4896L486.106 55.5106ZM477.381 74.2111C477.507 74.0956 477.634 73.9906 477.76 73.8646C478.699 72.9589 479.302 71.7634 479.47 70.4731C479.538 69.7478 479.863 69.0703 480.388 68.5621C480.892 68.0393 481.571 67.7182 482.297 67.6591C483.588 67.4731 484.784 66.8767 485.706 65.9589C486.629 65.0411 487.228 63.8511 487.415 62.5666C487.46 61.808 487.788 61.0932 488.333 60.5611C488.85 60.0485 489.535 59.739 490.264 59.6896C491.449 59.5272 492.555 59.0026 493.429 58.1881C494.423 59.0092 495.266 59.9971 495.919 61.1071C495.879 61.161 495.833 61.2103 495.782 61.2541C495.278 61.7814 494.6 62.1096 493.872 62.1781C492.58 62.3608 491.382 62.9561 490.459 63.8745C489.537 64.7929 488.938 65.9847 488.755 67.2706C488.68 67.9934 488.357 68.6685 487.84 69.1813C487.323 69.6941 486.643 70.0133 485.916 70.0846C484.622 70.2691 483.422 70.8643 482.494 71.7817C481.566 72.6992 480.961 73.8899 480.768 75.1771C480.711 75.6902 480.534 76.183 480.251 76.6156C479.168 75.9759 478.198 75.1636 477.381 74.2111ZM486.106 78.2641C485.036 78.2652 483.97 78.1168 482.941 77.8231C483.293 77.17 483.522 76.4582 483.616 75.7231C483.69 75.0018 484.012 74.328 484.527 73.8154C485.042 73.3028 485.719 72.9827 486.444 72.9091C487.737 72.7252 488.935 72.1297 489.859 71.2118C490.784 70.2938 491.384 69.1027 491.572 67.8166C491.646 67.0953 491.968 66.4215 492.483 65.9089C492.998 65.3963 493.675 65.0762 494.4 65.0026C495.372 64.8766 496.3 64.5162 497.101 63.9526C497.545 65.6304 497.598 67.3873 497.255 69.0885C496.911 70.7897 496.181 72.39 495.119 73.7667C494.058 75.1433 492.694 76.2597 491.131 77.0302C489.569 77.8007 487.85 78.2048 486.106 78.2116V78.2641Z" fill="#1D2130"/>
</g>
<g opacity="0.6">
<path d="M733.089 74.5432C732.465 74.5767 731.848 74.4008 731.337 74.044C731.123 73.8871 730.951 73.6811 730.836 73.4437C730.721 73.2064 730.666 72.9448 730.675 72.6816V63.0408C730.67 62.9999 730.675 62.9585 730.688 62.9196C730.702 62.8807 730.724 62.8454 730.753 62.8163C730.783 62.7872 730.818 62.7652 730.857 62.7518C730.897 62.7384 730.939 62.7341 730.98 62.7392H732.743C732.942 62.7392 733.037 62.8432 733.037 63.0408V71.9328C733.037 72.328 733.215 72.5256 733.582 72.5256C733.738 72.5319 733.894 72.5144 734.044 72.4736C734.254 72.4736 734.37 72.536 734.38 72.7232L734.537 74.0232C734.545 74.0611 734.544 74.1001 734.535 74.1377C734.526 74.1753 734.509 74.2106 734.486 74.2411C734.462 74.2717 734.431 74.2968 734.397 74.3148C734.362 74.3328 734.324 74.3433 734.286 74.3456C733.899 74.472 733.496 74.5386 733.089 74.5432Z" fill="#1D2130"/>
<path d="M743.007 73.4304C742.121 74.1558 741.007 74.5526 739.858 74.5526C738.709 74.5526 737.596 74.1558 736.71 73.4304C735.931 72.6514 735.494 71.5993 735.494 70.5028C735.494 69.4063 735.931 68.3542 736.71 67.5752C737.597 66.8536 738.71 66.4592 739.858 66.4592C741.006 66.4592 742.119 66.8536 743.007 67.5752C743.767 68.3614 744.192 69.4084 744.192 70.4976C744.192 71.5868 743.767 72.6339 743.007 73.42V73.4304ZM738.368 72.0576C738.779 72.4267 739.314 72.6311 739.869 72.6311C740.423 72.6311 740.958 72.4267 741.369 72.0576C741.742 71.6337 741.947 71.0907 741.947 70.5288C741.947 69.9669 741.742 69.424 741.369 69C740.958 68.631 740.423 68.4266 739.869 68.4266C739.314 68.4266 738.779 68.631 738.368 69C737.996 69.424 737.791 69.9669 737.791 70.5288C737.791 71.0907 737.996 71.6337 738.368 72.0576Z" fill="#1D2130"/>
<path d="M753.9 66.7224C754.1 66.7224 754.194 66.8264 754.194 67.024V74.4808C754.212 74.984 754.117 75.4851 753.916 75.9474C753.714 76.4097 753.411 76.8218 753.029 77.1536C752.181 77.8706 751.089 78.2422 749.975 78.1936C748.969 78.2286 747.976 77.9563 747.131 77.4136C746.77 77.1788 746.462 76.873 746.226 76.5151C745.989 76.1573 745.829 75.7551 745.756 75.3336C745.756 75.1256 745.756 75.032 746.04 75.032H747.803C747.878 75.0345 747.95 75.0584 748.012 75.1008C748.073 75.1433 748.121 75.2024 748.149 75.2712C748.263 75.587 748.491 75.85 748.789 76.0096C749.152 76.1952 749.556 76.2881 749.965 76.28C750.211 76.2933 750.458 76.2579 750.69 76.1758C750.923 76.0936 751.136 75.9664 751.318 75.8016C751.485 75.6291 751.615 75.425 751.699 75.2016C751.784 74.9781 751.822 74.74 751.812 74.5016V73.8464C751.18 74.3065 750.412 74.5444 749.629 74.5224C749.081 74.5421 748.534 74.4519 748.022 74.2571C747.51 74.0623 747.042 73.7669 746.648 73.3888C745.892 72.6131 745.469 71.5764 745.469 70.4976C745.469 69.4187 745.892 68.3821 746.648 67.6064C747.044 67.2315 747.512 66.939 748.024 66.7461C748.536 66.5532 749.082 66.4638 749.629 66.4832C750.435 66.4621 751.224 66.7153 751.864 67.2008V67.0344C751.859 66.9945 751.864 66.9541 751.876 66.916C751.889 66.878 751.911 66.8433 751.939 66.8144C751.967 66.7855 752.001 66.7632 752.039 66.7491C752.077 66.735 752.118 66.7294 752.158 66.7328L753.9 66.7224ZM749.828 72.6712C750.099 72.6795 750.368 72.6288 750.616 72.5228C750.864 72.4167 751.086 72.2579 751.266 72.0576C751.615 71.611 751.804 71.0623 751.804 70.4976C751.804 69.9328 751.615 69.3841 751.266 68.9376C751.087 68.7399 750.866 68.5835 750.62 68.4793C750.373 68.3751 750.107 68.3256 749.839 68.3344C749.565 68.3258 749.293 68.3763 749.041 68.4822C748.789 68.5882 748.564 68.7471 748.38 68.948C747.993 69.3751 747.79 69.9347 747.813 70.508C747.794 71.0756 747.993 71.6293 748.369 72.0576C748.554 72.2579 748.779 72.4164 749.031 72.5223C749.283 72.6282 749.555 72.679 749.828 72.6712Z" fill="#1D2130"/>
<path d="M763.251 73.4304C762.363 74.152 761.251 74.5464 760.103 74.5464C758.954 74.5464 757.842 74.152 756.954 73.4304C756.193 72.6425 755.768 71.5937 755.768 70.5028C755.768 69.4118 756.193 68.3631 756.954 67.5752C757.843 66.8554 758.955 66.4622 760.103 66.4622C761.25 66.4622 762.362 66.8554 763.251 67.5752C764.012 68.3613 764.436 69.4084 764.436 70.4976C764.436 71.5867 764.012 72.6338 763.251 73.42V73.4304ZM758.602 72.0576C758.803 72.2472 759.04 72.3955 759.3 72.4936C759.559 72.5918 759.835 72.638 760.113 72.6296C760.389 72.6366 760.663 72.5898 760.921 72.4916C761.178 72.3935 761.414 72.246 761.614 72.0576C761.98 71.6308 762.181 71.0889 762.181 70.5288C762.181 69.9686 761.98 69.4268 761.614 69C761.414 68.8116 761.178 68.6641 760.921 68.5659C760.663 68.4678 760.389 68.4209 760.113 68.428C759.835 68.4195 759.559 68.4657 759.3 68.5639C759.04 68.6621 758.803 68.8103 758.602 69C758.236 69.4268 758.035 69.9686 758.035 70.5288C758.035 71.0889 758.236 71.6308 758.602 72.0576Z" fill="#1D2130"/>
<path d="M768.225 64.9544C767.948 65.195 767.592 65.3277 767.223 65.3277C766.855 65.3277 766.498 65.195 766.221 64.9544C766.095 64.8368 765.995 64.6949 765.927 64.5375C765.858 64.3802 765.823 64.2106 765.823 64.0392C765.823 63.8678 765.858 63.6982 765.927 63.5409C765.995 63.3835 766.095 63.2416 766.221 63.124C766.501 62.8894 766.856 62.7607 767.223 62.7607C767.59 62.7607 767.945 62.8894 768.225 63.124C768.351 63.2416 768.451 63.3835 768.52 63.5409C768.588 63.6982 768.624 63.8678 768.624 64.0392C768.624 64.2106 768.588 64.3802 768.52 64.5375C768.451 64.6949 768.351 64.8368 768.225 64.9544ZM768.446 74.5432C767.822 74.5735 767.206 74.3979 766.693 74.044C766.483 73.8848 766.314 73.6781 766.201 73.4411C766.088 73.2041 766.033 72.9437 766.043 72.6816V67.024C766.037 66.9832 766.042 66.9418 766.055 66.9029C766.069 66.864 766.091 66.8286 766.12 66.7995C766.15 66.7705 766.185 66.7484 766.225 66.735C766.264 66.7217 766.306 66.7173 766.347 66.7224H768.11C768.309 66.7224 768.404 66.8264 768.404 67.024V71.9328C768.404 72.328 768.582 72.5256 768.939 72.5256C769.098 72.5313 769.257 72.5138 769.411 72.4736C769.621 72.4736 769.737 72.536 769.747 72.7232L769.905 74.0232C769.912 74.0611 769.911 74.1002 769.903 74.1378C769.894 74.1754 769.877 74.2106 769.853 74.2412C769.829 74.2717 769.799 74.2969 769.764 74.3149C769.73 74.3329 769.692 74.3434 769.653 74.3456C769.263 74.4727 768.856 74.5394 768.446 74.5432Z" fill="#1D2130"/>
<path d="M776.39 66.4728C776.941 66.4513 777.491 66.5396 778.006 66.7325C778.522 66.9255 778.993 67.2191 779.392 67.596C780.134 68.3853 780.547 69.424 780.547 70.5028C780.547 71.5816 780.134 72.6203 779.392 73.4096C778.995 73.7899 778.524 74.0864 778.008 74.2812C777.493 74.4761 776.942 74.5652 776.39 74.5432C775.605 74.5605 774.834 74.3232 774.197 73.8672V77.6216C774.197 77.8192 774.092 77.9128 773.893 77.9128H772.13C772.089 77.9203 772.048 77.9179 772.009 77.9059C771.97 77.8939 771.934 77.8726 771.905 77.844C771.876 77.8153 771.855 77.78 771.843 77.7413C771.831 77.7026 771.828 77.6615 771.836 77.6216V69.0936C771.848 69.0102 771.841 68.9251 771.814 68.8451C771.787 68.765 771.742 68.6923 771.682 68.6327C771.622 68.5731 771.548 68.5282 771.467 68.5017C771.387 68.4752 771.301 68.4678 771.217 68.48H770.87C770.639 68.48 770.524 68.3968 770.524 68.2304V67.0032C770.518 66.9273 770.539 66.8518 770.583 66.7893C770.627 66.7269 770.692 66.6812 770.765 66.66C771.128 66.5293 771.513 66.4658 771.899 66.4728C772.284 66.439 772.67 66.52 773.009 66.7053C773.347 66.8905 773.622 67.1717 773.798 67.5128C774.136 67.174 774.541 66.907 774.986 66.7281C775.432 66.5493 775.91 66.4624 776.39 66.4728ZM774.753 72.0576C774.94 72.2514 775.165 72.4056 775.414 72.511C775.663 72.6164 775.931 72.6707 776.202 72.6707C776.472 72.6707 776.74 72.6164 776.989 72.511C777.238 72.4056 777.463 72.2514 777.65 72.0576C778.044 71.622 778.251 71.0511 778.227 70.4664C778.255 69.8813 778.047 69.3091 777.65 68.8752C777.463 68.6814 777.238 68.5272 776.989 68.4218C776.74 68.3165 776.472 68.2621 776.202 68.2621C775.931 68.2621 775.663 68.3165 775.414 68.4218C775.165 68.5272 774.94 68.6814 774.753 68.8752C774.371 69.3168 774.173 69.8854 774.197 70.4664C774.176 71.047 774.374 71.6145 774.753 72.0576Z" fill="#1D2130"/>
<path d="M785.5 74.5431C784.558 74.5815 783.623 74.3582 782.803 73.8983C782.473 73.7018 782.193 73.4342 781.982 73.1155C781.771 72.7969 781.636 72.4353 781.585 72.0575C781.585 71.8495 781.659 71.7456 781.89 71.7456H783.432C783.506 71.7484 783.577 71.7712 783.638 71.8116C783.699 71.852 783.748 71.9083 783.779 71.9743C783.999 72.5359 784.576 72.8167 785.5 72.8167C785.822 72.8313 786.143 72.767 786.434 72.6295C786.534 72.5846 786.621 72.5134 786.683 72.4237C786.746 72.3339 786.783 72.229 786.791 72.12C786.791 71.8496 786.623 71.6623 786.287 71.5375C785.889 71.4062 785.477 71.319 785.059 71.2775C784.564 71.222 784.073 71.1352 783.59 71.0175C783.119 70.912 782.692 70.6694 782.362 70.3208C782.168 70.0838 782.025 69.8098 781.942 69.5158C781.859 69.2217 781.838 68.9139 781.88 68.6116C781.923 68.3092 782.027 68.0186 782.188 67.758C782.348 67.4974 782.561 67.2723 782.813 67.0968C783.57 66.6192 784.457 66.3866 785.353 66.4312C786.22 66.4021 787.078 66.6147 787.83 67.0448C788.132 67.2147 788.393 67.4495 788.593 67.7319C788.793 68.0144 788.926 68.3375 788.984 68.6776C788.984 68.8856 788.89 68.9895 788.701 68.9895H787.147C787.082 68.9934 787.017 68.9776 786.961 68.9442C786.905 68.9108 786.86 68.8613 786.833 68.8024C786.729 68.556 786.533 68.3587 786.287 68.2512C786.009 68.1069 785.698 68.0354 785.384 68.0432C785.077 68.0266 784.77 68.0874 784.492 68.22C784.394 68.2573 784.31 68.3229 784.25 68.4081C784.191 68.4934 784.158 68.5945 784.156 68.6984C784.163 68.8406 784.216 68.9769 784.306 69.0874C784.397 69.1978 784.521 69.2765 784.66 69.312C785.063 69.4625 785.482 69.5671 785.909 69.624C786.4 69.688 786.887 69.7782 787.368 69.8943C787.838 69.9998 788.266 70.2425 788.596 70.5912C788.772 70.7832 788.908 71.008 788.997 71.2525C789.085 71.4971 789.123 71.7566 789.11 72.0159C789.119 72.3755 789.034 72.7312 788.863 73.0483C788.692 73.3655 788.441 73.6333 788.134 73.8256C787.35 74.3244 786.431 74.5747 785.5 74.5431Z" fill="#1D2130"/>
<path d="M800.203 74.0232C800.209 74.0601 800.207 74.0978 800.198 74.1341C800.189 74.1705 800.173 74.2046 800.151 74.2347C800.128 74.2647 800.1 74.29 800.067 74.309C800.035 74.3281 799.999 74.3405 799.962 74.3456C799.578 74.4695 799.179 74.5361 798.776 74.5432C798.377 74.5841 797.974 74.5223 797.606 74.3638C797.239 74.2053 796.918 73.9554 796.677 73.6384C795.935 74.27 794.977 74.594 794.001 74.5432C793.547 74.5639 793.095 74.4904 792.672 74.3274C792.249 74.1644 791.865 73.9155 791.545 73.5968C791.227 73.2628 790.98 72.8686 790.82 72.438C790.659 72.0073 790.588 71.5489 790.611 71.0904V67.024C790.611 66.8264 790.705 66.7224 790.905 66.7224H792.668C792.867 66.7224 792.962 66.8264 792.962 67.024V70.7784C792.942 71.2461 793.104 71.7035 793.413 72.0576C793.567 72.2197 793.755 72.3473 793.963 72.4316C794.171 72.5159 794.395 72.555 794.62 72.5464C794.85 72.5563 795.079 72.521 795.296 72.4425C795.512 72.3639 795.71 72.2437 795.879 72.0888C796.039 71.9254 796.163 71.7313 796.245 71.5185C796.326 71.3056 796.362 71.0785 796.351 70.8512V67.024C796.351 66.8264 796.446 66.7224 796.645 66.7224H798.429C798.629 66.7224 798.723 66.8264 798.723 67.024V71.9224C798.723 72.328 798.902 72.5256 799.248 72.5256C799.411 72.5318 799.573 72.5143 799.731 72.4736C799.77 72.4625 799.812 72.4606 799.853 72.4678C799.893 72.475 799.932 72.4912 799.965 72.5152C799.998 72.5393 800.026 72.5704 800.045 72.6064C800.064 72.6425 800.075 72.6824 800.077 72.7232L800.203 74.0232Z" fill="#1D2130"/>
<path d="M816.879 74.0232C816.888 74.0604 816.889 74.0993 816.882 74.1369C816.874 74.1745 816.858 74.21 816.835 74.2409C816.812 74.2717 816.782 74.2971 816.748 74.3152C816.714 74.3333 816.676 74.3437 816.638 74.3456C816.248 74.4713 815.841 74.5379 815.431 74.5432C814.807 74.5751 814.19 74.3994 813.678 74.044C813.457 73.8918 813.277 73.6878 813.154 73.4501C813.032 73.2125 812.97 72.9485 812.975 72.6816V70.2376C812.997 69.7712 812.839 69.314 812.534 68.9584C812.387 68.7959 812.205 68.6677 812.002 68.5832C811.799 68.4987 811.579 68.4599 811.359 68.4696C811.16 68.4622 810.963 68.4995 810.781 68.5788C810.599 68.658 810.438 68.7772 810.309 68.9272C810.032 69.2757 809.891 69.7112 809.91 70.1544V73.992C809.91 74.1896 809.816 74.2936 809.617 74.2936H807.843C807.802 74.2987 807.76 74.2943 807.721 74.281C807.682 74.2676 807.646 74.2455 807.617 74.2165C807.587 74.1874 807.565 74.152 807.551 74.1131C807.538 74.0743 807.534 74.0328 807.539 73.992V70.2376C807.562 69.7763 807.416 69.3223 807.129 68.9584C807.001 68.8055 806.841 68.6825 806.66 68.598C806.478 68.5135 806.28 68.4697 806.08 68.4696C805.866 68.461 805.652 68.4974 805.453 68.5762C805.254 68.6551 805.075 68.7747 804.925 68.9272C804.625 69.2646 804.471 69.7053 804.495 70.1544V73.992C804.5 74.0328 804.496 74.0743 804.482 74.1131C804.469 74.152 804.447 74.1874 804.417 74.2165C804.388 74.2455 804.352 74.2676 804.313 74.281C804.274 74.2943 804.232 74.2987 804.191 74.2936H802.48C802.281 74.2936 802.186 74.1896 802.186 73.992V69.0936C802.199 69.0102 802.191 68.9251 802.164 68.845C802.138 68.765 802.092 68.6923 802.032 68.6327C801.972 68.5731 801.899 68.5282 801.818 68.5017C801.737 68.4752 801.651 68.4678 801.567 68.48H801.221C800.99 68.48 800.875 68.3968 800.875 68.2304V67.0032C800.869 66.9273 800.89 66.8518 800.934 66.7893C800.978 66.7269 801.042 66.6812 801.116 66.66C801.479 66.5292 801.863 66.4658 802.249 66.4728C802.62 66.4415 802.992 66.5147 803.323 66.684C803.653 66.8533 803.929 67.1118 804.117 67.4296C804.471 67.0971 804.891 66.8404 805.35 66.6758C805.808 66.5112 806.296 66.4421 806.783 66.4728C807.256 66.4499 807.728 66.5378 808.16 66.7294C808.592 66.9209 808.972 67.2107 809.27 67.5752C809.618 67.2011 810.044 66.9082 810.52 66.7175C810.996 66.5269 811.508 66.4433 812.02 66.4728C812.478 66.4516 812.936 66.5247 813.364 66.6876C813.792 66.8505 814.181 67.0996 814.507 67.4192C814.826 67.7525 815.073 68.1465 815.234 68.5774C815.394 69.0082 815.465 69.4669 815.441 69.9256V71.9328C815.441 72.328 815.62 72.5256 815.955 72.5256C816.118 72.5331 816.281 72.5156 816.438 72.4736C816.655 72.4736 816.771 72.5568 816.785 72.7232L816.879 74.0232Z" fill="#1D2130"/>
<path d="M693.818 65.3704C694.592 62.2865 696.385 59.5479 698.912 57.5907C701.439 55.6335 704.553 54.5703 707.76 54.5703C710.967 54.5703 714.082 55.6335 716.608 57.5907C719.135 59.5479 720.928 62.2865 721.702 65.3704H720.443C718.319 65.3394 716.238 65.9686 714.493 67.1696C714.392 67.2419 714.287 67.3079 714.178 67.3672H714.031C713.922 67.3079 713.817 67.2419 713.716 67.1696C711.955 65.9964 709.882 65.3698 707.76 65.3698C705.639 65.3698 703.565 65.9964 701.804 67.1696C701.704 67.2419 701.599 67.3079 701.49 67.3672H701.343C701.234 67.3079 701.129 67.2419 701.028 67.1696C699.283 65.9686 697.202 65.3394 695.077 65.3704H693.818ZM718.176 71.8912C718.823 71.3923 719.624 71.1313 720.443 71.1528H722.133V67.8144H720.443C719 67.7971 717.59 68.2422 716.424 69.0832C715.767 69.563 714.973 69.8218 714.157 69.8218C713.341 69.8218 712.547 69.563 711.89 69.0832C710.693 68.2578 709.271 67.8154 707.813 67.8154C706.355 67.8154 704.932 68.2578 703.735 69.0832C703.079 69.563 702.284 69.8218 701.469 69.8218C700.653 69.8218 699.858 69.563 699.202 69.0832C698.02 68.2314 696.59 67.7858 695.13 67.8144H693.388V71.1528H695.077C695.896 71.1313 696.698 71.3923 697.344 71.8912C698.539 72.7171 699.96 73.16 701.416 73.16C702.873 73.16 704.294 72.7171 705.488 71.8912C706.135 71.3938 706.936 71.133 707.755 71.1528C708.574 71.1296 709.376 71.3907 710.022 71.8912C711.218 72.7166 712.641 73.1591 714.099 73.1591C715.557 73.1591 716.98 72.7166 718.176 71.8912ZM718.176 77.8608C718.823 77.3619 719.624 77.1009 720.443 77.1224H722.133V73.784H720.443C719 73.7667 717.59 74.2118 716.424 75.0528C715.767 75.5326 714.973 75.7914 714.157 75.7914C713.341 75.7914 712.547 75.5326 711.89 75.0528C710.693 74.2274 709.271 73.785 707.813 73.785C706.355 73.785 704.932 74.2274 703.735 75.0528C703.079 75.5326 702.284 75.7914 701.469 75.7914C700.653 75.7914 699.858 75.5326 699.202 75.0528C698.02 74.201 696.59 73.7554 695.13 73.784H693.388V77.1224H695.077C695.896 77.1009 696.698 77.3619 697.344 77.8608C698.539 78.6867 699.96 79.1296 701.416 79.1296C702.873 79.1296 704.294 78.6867 705.488 77.8608C706.135 77.3634 706.936 77.1026 707.755 77.1224C708.574 77.0992 709.376 77.3603 710.022 77.8608C711.218 78.6862 712.641 79.1287 714.099 79.1287C715.557 79.1287 716.98 78.6862 718.176 77.8608Z" fill="#1D2130"/>
</g>
<g opacity="0.6">
<path d="M951.157 60.8232H954.544V74.4732H951.157V60.8232ZM955.895 69.3387C955.895 65.9577 958.005 63.9312 961.17 63.9312C964.336 63.9312 966.446 65.9577 966.446 69.3387C966.446 72.7197 964.409 74.7672 961.17 74.7672C957.931 74.7672 955.895 72.7932 955.895 69.3387ZM963.091 69.3387C963.091 67.4802 962.363 66.3882 961.202 66.3882C960.041 66.3882 959.324 67.4382 959.324 69.3387C959.324 71.2392 960.041 72.2787 961.202 72.2787C962.363 72.2787 963.112 71.2392 963.112 69.3492L963.091 69.3387ZM967.796 75.1767H971.067C971.216 75.5272 971.476 75.8195 971.808 76.0091C972.139 76.1987 972.524 76.2751 972.903 76.2267C974.201 76.2267 974.876 75.5337 974.876 74.5047V72.6147H974.887C974.607 73.2032 974.155 73.6937 973.59 74.0217C973.025 74.3497 972.374 74.4998 971.721 74.4522C969.242 74.4522 967.596 72.5727 967.596 69.3387C967.596 66.1047 969.168 64.0887 971.816 64.0887C972.485 64.0531 973.149 64.2248 973.716 64.5802C974.283 64.9357 974.725 65.4573 974.982 66.0732H974.887V64.1727H978.242V74.3997C978.242 76.8672 976.047 78.4107 972.819 78.4107C969.886 78.4002 968.007 77.0667 967.818 75.1872L967.796 75.1767ZM974.887 69.3387C974.887 67.6902 974.127 66.6507 972.924 66.6507C971.721 66.6507 970.983 67.7007 970.983 69.3387C970.983 70.9767 971.711 71.9427 972.924 71.9427C974.138 71.9427 974.887 71.0502 974.887 69.3387ZM979.582 69.3387C979.582 65.9577 981.692 63.9312 984.858 63.9312C988.023 63.9312 990.133 65.9577 990.133 69.3387C990.133 72.7197 988.086 74.7672 984.858 74.7672C981.629 74.7672 979.603 72.7932 979.603 69.3387H979.582ZM986.778 69.3387C986.778 67.4802 986.039 66.3882 984.889 66.3882C983.739 66.3882 983.011 67.4382 983.011 69.3387C983.011 71.2392 983.729 72.2787 984.889 72.2787C986.05 72.2787 986.799 71.2392 986.799 69.3492L986.778 69.3387ZM991.505 61.6842C991.49 61.3409 991.579 61.001 991.76 60.7083C991.941 60.4157 992.206 60.1836 992.52 60.0419C992.835 59.9002 993.185 59.8554 993.525 59.9133C993.866 59.9713 994.181 60.1292 994.43 60.3668C994.68 60.6045 994.852 60.9109 994.925 61.2468C994.998 61.5827 994.968 61.9326 994.84 62.2516C994.711 62.5705 994.49 62.8439 994.204 63.0366C993.918 63.2293 993.581 63.3324 993.235 63.3327C993.015 63.3383 992.795 63.3002 992.589 63.2206C992.383 63.1411 992.196 63.0216 992.037 62.8693C991.877 62.7169 991.75 62.5346 991.663 62.333C991.575 62.1313 991.529 61.9144 991.526 61.6947L991.505 61.6842ZM991.505 64.1622H994.934V74.5152H991.558L991.505 64.1622ZM1007.27 69.3387C1007.27 72.7092 1005.75 74.6622 1003.16 74.6622C1002.5 74.7028 1001.84 74.5404 1001.28 74.1967C1000.71 73.8531 1000.27 73.3449 999.998 72.7407H999.935V77.8437H996.548V64.1937H999.914V66.0417H999.977C1000.23 65.4256 1000.68 64.9035 1001.24 64.5465C1001.81 64.1895 1002.47 64.015 1003.14 64.0467C1005.8 64.0257 1007.33 65.9682 1007.33 69.3492L1007.27 69.3387ZM1003.82 69.3387C1003.82 67.7007 1003.05 66.6402 1001.86 66.6402C1000.66 66.6402 999.914 67.6902 999.904 69.3387C999.893 70.9872 1000.66 72.0267 1001.86 72.0267C1003.05 72.0267 1003.88 71.0502 1003.88 69.3492L1003.82 69.3387ZM1013.05 63.9207C1015.89 63.9207 1017.65 65.2542 1017.67 67.3962H1014.58C1014.58 66.6507 1013.96 66.1887 1013.03 66.1887C1012.1 66.1887 1011.66 66.5457 1011.66 67.0812C1011.66 67.6167 1012.05 67.7847 1012.83 67.9422L1015 68.3832C1017.11 68.8242 1017.96 69.6642 1017.96 71.2287C1017.96 73.3287 1016 74.7567 1013.1 74.7567C1010.2 74.7567 1008.31 73.3707 1008.18 71.2602H1011.46C1011.55 72.0267 1012.16 72.4782 1013.16 72.4782C1014.15 72.4782 1014.61 72.1632 1014.61 71.6067C1014.61 71.0502 1014.3 70.9557 1013.48 70.7877L1011.52 70.3782C1009.48 69.9477 1008.42 68.8872 1008.42 67.3017C1008.48 65.2437 1010.25 63.9312 1013.11 63.9312L1013.05 63.9207ZM1029.3 74.5047H1026.02V72.5622H1025.95C1025.77 73.2101 1025.37 73.7764 1024.82 74.1677C1024.27 74.559 1023.6 74.7519 1022.93 74.7147C1022.42 74.7312 1021.91 74.6403 1021.44 74.4477C1020.96 74.2552 1020.54 73.9655 1020.19 73.5977C1019.83 73.2298 1019.57 72.7921 1019.4 72.3133C1019.23 71.8344 1019.16 71.3253 1019.2 70.8192V64.1727H1022.59V70.0947C1022.59 71.3127 1023.23 71.9742 1024.29 71.9742C1024.53 71.9724 1024.78 71.9177 1025 71.8138C1025.23 71.71 1025.43 71.5595 1025.59 71.3724C1025.75 71.1852 1025.87 70.9659 1025.94 70.7292C1026.01 70.4925 1026.02 70.2439 1025.99 70.0002V64.1727H1029.36L1029.3 74.5047ZM1030.93 64.1622H1034.23V66.1572H1034.3C1034.48 65.5181 1034.87 64.9571 1035.41 64.5619C1035.94 64.1667 1036.6 63.9597 1037.27 63.9732C1037.94 63.9153 1038.6 64.108 1039.14 64.5139C1039.67 64.9197 1040.04 65.5094 1040.16 66.1677H1040.3C1040.51 65.5059 1040.94 64.932 1041.51 64.5352C1042.08 64.1383 1042.77 63.9407 1043.47 63.9732C1043.93 63.9557 1044.39 64.0357 1044.82 64.208C1045.25 64.3802 1045.64 64.6409 1045.96 64.973C1046.29 65.305 1046.53 65.701 1046.69 66.1348C1046.85 66.5687 1046.91 67.0307 1046.88 67.4907V74.5152H1043.47V68.3517C1043.47 67.3017 1042.97 66.7137 1042.01 66.7137C1041.8 66.7102 1041.59 66.7526 1041.39 66.838C1041.2 66.9233 1041.02 67.0496 1040.88 67.2082C1040.74 67.3668 1040.64 67.5539 1040.58 67.7567C1040.51 67.9595 1040.5 68.1732 1040.53 68.3832V74.5152H1037.3V68.3202C1037.3 67.2702 1036.78 66.7137 1035.85 66.7137C1035.64 66.712 1035.42 66.7561 1035.23 66.8431C1035.03 66.9301 1034.85 67.058 1034.71 67.2181C1034.57 67.3782 1034.46 67.5669 1034.4 67.7714C1034.33 67.976 1034.32 68.1918 1034.34 68.4042V74.5152H1030.96L1030.93 64.1622Z" fill="#1D2130"/>
<path d="M944.457 61.7158C944.457 59.626 943.823 57.5849 942.638 55.8598C941.452 54.1347 939.771 52.8061 937.814 52.048C935.857 51.2899 933.716 51.1376 931.671 51.6111C929.625 52.0847 927.771 53.1619 926.351 54.7018H913.184V82.3588H940.986V69.4333C942.077 68.462 942.95 67.2727 943.548 65.9429C944.147 64.6131 944.456 63.1727 944.457 61.7158ZM939.108 61.7158C939.11 62.7172 938.813 63.6968 938.256 64.5304C937.698 65.3641 936.905 66.0144 935.976 66.399C935.047 66.7837 934.024 66.8854 933.036 66.6913C932.049 66.4973 931.142 66.0161 930.43 65.3087C929.717 64.6013 929.232 63.6996 929.035 62.7175C928.838 61.7355 928.938 60.7174 929.323 59.792C929.707 58.8666 930.359 58.0756 931.196 57.519C932.032 56.9624 933.016 56.6653 934.022 56.6653C935.369 56.6653 936.661 57.1971 937.614 58.1439C938.568 59.0908 939.105 60.3754 939.108 61.7158ZM935.636 77.0353H918.533V60.0253H923.745C923.645 60.5833 923.592 61.1489 923.587 61.7158C923.59 64.4691 924.69 67.1088 926.646 69.0557C928.603 71.0026 931.255 72.0975 934.022 72.1003C934.563 72.0975 935.103 72.0518 935.636 71.9638V77.0353Z" fill="#1D2130"/>
</g>
<g opacity="0.6">
<path d="M1176.18 58.635H1179.34V73.952H1176.18V58.635Z" fill="#1D2130"/>
<path d="M1181.11 68.705C1181.11 67.603 1181.44 66.5258 1182.05 65.61C1182.66 64.6941 1183.53 63.9809 1184.54 63.5606C1185.56 63.1404 1186.67 63.032 1187.75 63.2494C1188.82 63.4667 1189.81 63.9999 1190.58 64.7813C1191.36 65.5628 1191.88 66.5573 1192.09 67.6389C1192.3 68.7205 1192.19 69.8405 1191.76 70.8568C1191.34 71.8731 1190.62 72.74 1189.71 73.3476C1188.79 73.9553 1187.72 74.2763 1186.62 74.27C1185.9 74.2757 1185.17 74.1354 1184.5 73.8574C1183.83 73.5793 1183.22 73.1691 1182.7 72.6508C1182.19 72.1325 1181.79 71.5165 1181.51 70.8389C1181.24 70.1613 1181.11 69.4359 1181.11 68.705ZM1189.05 68.705C1189.04 68.2299 1188.89 67.769 1188.61 67.3801C1188.34 66.9911 1187.96 66.6912 1187.52 66.518C1187.08 66.3448 1186.6 66.3059 1186.14 66.4062C1185.67 66.5066 1185.25 66.7416 1184.92 67.082C1184.59 67.4224 1184.37 67.853 1184.28 68.32C1184.19 68.787 1184.24 69.2696 1184.43 69.7076C1184.61 70.1455 1184.92 70.5192 1185.31 70.7821C1185.71 71.0449 1186.17 71.1852 1186.64 71.1854C1186.97 71.1917 1187.29 71.1312 1187.58 71.0077C1187.88 70.8841 1188.15 70.7002 1188.37 70.4674C1188.6 70.2346 1188.77 69.958 1188.88 69.6547C1189 69.3515 1189.05 69.0282 1189.03 68.705H1189.05Z" fill="#1D2130"/>
<path d="M1204.65 63.458V73.4326C1204.65 76.9518 1201.91 78.4464 1199.14 78.4464C1198.16 78.5271 1197.18 78.3317 1196.3 77.8823C1195.43 77.4328 1194.7 76.7471 1194.19 75.9024L1196.86 74.3548C1197.07 74.793 1197.42 75.1545 1197.84 75.3912C1198.27 75.6279 1198.76 75.7286 1199.24 75.6798C1199.55 75.718 1199.86 75.6872 1200.16 75.5896C1200.45 75.4921 1200.72 75.3302 1200.95 75.1154C1201.18 74.9007 1201.35 74.6385 1201.47 74.3476C1201.58 74.0567 1201.63 73.7442 1201.61 73.4326V72.468C1201.24 72.9167 1200.77 73.2729 1200.24 73.5084C1199.71 73.7439 1199.13 73.8523 1198.56 73.8248C1197.16 73.8248 1195.81 73.2664 1194.83 72.2725C1193.84 71.2785 1193.28 69.9305 1193.28 68.5248C1193.28 67.1192 1193.84 65.7711 1194.83 64.7771C1195.81 63.7832 1197.16 63.2248 1198.56 63.2248C1199.13 63.1973 1199.71 63.3057 1200.24 63.5412C1200.77 63.7767 1201.24 64.1329 1201.61 64.5816V63.5216L1204.65 63.458ZM1201.61 68.493C1201.63 67.9859 1201.5 67.484 1201.23 67.0519C1200.97 66.6199 1200.58 66.2774 1200.12 66.0685C1199.66 65.8596 1199.14 65.7938 1198.65 65.8797C1198.15 65.9655 1197.69 66.1991 1197.32 66.5503C1196.96 66.9015 1196.71 67.3542 1196.6 67.8504C1196.49 68.3466 1196.54 68.8634 1196.73 69.3345C1196.91 69.8055 1197.24 70.2093 1197.66 70.4938C1198.07 70.7783 1198.57 70.9306 1199.07 70.931C1199.4 70.9549 1199.73 70.909 1200.04 70.7963C1200.36 70.6837 1200.64 70.5068 1200.88 70.277C1201.12 70.0473 1201.3 69.7698 1201.43 69.4625C1201.56 69.1552 1201.61 68.8249 1201.61 68.493Z" fill="#1D2130"/>
<path d="M1206.44 68.705C1206.44 67.6039 1206.76 66.5275 1207.37 65.6121C1207.98 64.6968 1208.85 63.9835 1209.86 63.5626C1210.87 63.1417 1211.99 63.0321 1213.06 63.2477C1214.14 63.4633 1215.12 63.9944 1215.9 64.7737C1216.67 65.5531 1217.2 66.5456 1217.41 67.6258C1217.62 68.706 1217.51 69.8253 1217.09 70.842C1216.67 71.8587 1215.96 72.7271 1215.05 73.3373C1214.13 73.9475 1213.06 74.2721 1211.97 74.27C1211.24 74.2771 1210.51 74.1379 1209.84 73.8606C1209.17 73.5834 1208.55 73.1735 1208.04 72.6552C1207.52 72.1369 1207.12 71.5205 1206.84 70.8422C1206.57 70.1639 1206.43 69.4373 1206.44 68.705ZM1214.37 68.705C1214.36 68.2295 1214.21 67.7682 1213.94 67.379C1213.66 66.9898 1213.28 66.69 1212.84 66.5171C1212.4 66.3442 1211.92 66.3059 1211.46 66.4071C1210.99 66.5083 1210.57 66.7444 1210.24 67.0858C1209.91 67.4273 1209.69 67.8589 1209.6 68.3265C1209.52 68.7942 1209.57 69.2772 1209.75 69.7149C1209.94 70.1526 1210.25 70.5257 1210.64 70.7872C1211.04 71.0488 1211.5 71.1873 1211.98 71.1854C1212.3 71.1917 1212.62 71.1312 1212.92 71.0077C1213.21 70.8841 1213.48 70.7002 1213.71 70.4674C1213.93 70.2346 1214.1 69.958 1214.22 69.6547C1214.33 69.3515 1214.38 69.0282 1214.36 68.705H1214.37Z" fill="#1D2130"/>
<path d="M1218.96 60.649C1218.96 60.2758 1219.07 59.911 1219.28 59.6007C1219.48 59.2904 1219.78 59.0486 1220.12 58.9058C1220.46 58.763 1220.84 58.7256 1221.21 58.7984C1221.57 58.8712 1221.91 59.0509 1222.17 59.3148C1222.43 59.5787 1222.61 59.9149 1222.68 60.2809C1222.75 60.6469 1222.72 61.0262 1222.58 61.371C1222.43 61.7158 1222.19 62.0104 1221.88 62.2178C1221.57 62.4251 1221.21 62.5358 1220.84 62.5358C1220.34 62.5302 1219.87 62.3297 1219.52 61.977C1219.17 61.6244 1218.97 61.1477 1218.96 60.649ZM1219.27 63.458H1222.43V73.952H1219.27V63.458Z" fill="#1D2130"/>
<path d="M1235.98 68.705C1236.02 69.4029 1235.91 70.101 1235.68 70.7591C1235.45 71.4171 1235.08 72.0222 1234.62 72.5394C1234.15 73.0566 1233.58 73.4758 1232.95 73.7728C1232.32 74.0698 1231.64 74.2388 1230.95 74.27C1230.36 74.3094 1229.77 74.2146 1229.22 73.9925C1228.67 73.7704 1228.18 73.4268 1227.78 72.9874V78.1708H1224.62V63.458H1227.78V64.4438C1228.18 64.0057 1228.67 63.6637 1229.22 63.4435C1229.77 63.2232 1230.36 63.1303 1230.95 63.1718C1231.64 63.2031 1232.32 63.3711 1232.95 63.6661C1233.57 63.9611 1234.14 64.3774 1234.61 64.8912C1235.07 65.4051 1235.43 66.0063 1235.67 66.6607C1235.91 67.3151 1236.01 68.0097 1235.98 68.705ZM1232.82 68.705C1232.8 68.2127 1232.65 67.7351 1232.36 67.3319C1232.08 66.9287 1231.69 66.618 1231.23 66.4387C1230.78 66.2594 1230.28 66.2195 1229.8 66.324C1229.32 66.4284 1228.88 66.6726 1228.54 67.0259C1228.2 67.3792 1227.97 67.8259 1227.88 68.3101C1227.79 68.7942 1227.84 69.2942 1228.03 69.7474C1228.23 70.2006 1228.55 70.5869 1228.96 70.8578C1229.37 71.1287 1229.85 71.2722 1230.34 71.2702C1230.67 71.2845 1231.01 71.2274 1231.32 71.1025C1231.63 70.9777 1231.91 70.7879 1232.15 70.5457C1232.38 70.3035 1232.56 70.0143 1232.68 69.6971C1232.79 69.3799 1232.84 69.0418 1232.82 68.705Z" fill="#1D2130"/>
<path d="M1245.61 70.8038C1245.61 73.2206 1243.5 74.2488 1241.27 74.2488C1240.35 74.3313 1239.44 74.137 1238.64 73.6911C1237.84 73.2451 1237.19 72.568 1236.77 71.7472L1239.49 70.1996C1239.6 70.5778 1239.84 70.9074 1240.16 71.1331C1240.48 71.3589 1240.87 71.4671 1241.26 71.4398C1242.01 71.4398 1242.39 71.2066 1242.39 70.7826C1242.39 69.6272 1237.25 70.242 1237.25 66.6062C1237.25 64.3166 1239.17 63.1718 1241.34 63.1718C1242.17 63.1346 1242.99 63.3229 1243.72 63.7167C1244.44 64.1105 1245.05 64.6951 1245.48 65.4084L1242.75 66.85C1242.63 66.5765 1242.44 66.3439 1242.19 66.1803C1241.94 66.0166 1241.65 65.9289 1241.35 65.9278C1240.8 65.9278 1240.48 66.1398 1240.48 66.5108C1240.48 67.7192 1245.61 66.9242 1245.61 70.8038Z" fill="#1D2130"/>
<path d="M1257.08 63.458V73.952H1253.92V72.9662C1253.56 73.4026 1253.1 73.7479 1252.58 73.9744C1252.07 74.2009 1251.51 74.3022 1250.94 74.27C1248.83 74.27 1247.03 72.7542 1247.03 69.924V63.458H1250.19V69.447C1250.17 69.6974 1250.2 69.9503 1250.28 70.1881C1250.36 70.4259 1250.49 70.643 1250.67 70.8244C1250.84 71.0058 1251.05 71.1472 1251.28 71.2388C1251.52 71.3304 1251.77 71.3701 1252.02 71.355C1253.16 71.355 1253.96 70.6766 1253.96 69.235V63.458H1257.08Z" fill="#1D2130"/>
<path d="M1275.02 67.5072V73.952H1271.85V67.7828C1271.85 66.7228 1271.36 66.0656 1270.36 66.0656C1269.35 66.0656 1268.72 66.797 1268.72 68.0372V73.952H1265.56V67.7828C1265.56 66.7228 1265.06 66.0656 1264.06 66.0656C1263.05 66.0656 1262.42 66.797 1262.42 68.0372V73.952H1259.26V63.458H1262.42V64.4226C1262.75 63.9964 1263.18 63.6589 1263.67 63.4406C1264.16 63.2222 1264.69 63.1298 1265.23 63.1718C1265.76 63.1437 1266.3 63.256 1266.78 63.4976C1267.26 63.7392 1267.66 64.1018 1267.96 64.5498C1268.31 64.0817 1268.77 63.7098 1269.3 63.4689C1269.83 63.2279 1270.41 63.1257 1270.99 63.1718C1273.46 63.1718 1275.02 64.889 1275.02 67.5072Z" fill="#1D2130"/>
<path d="M1157.32 55.879V51.374H1143.18V82.326H1157.32V77.821C1154.43 77.821 1151.65 76.6651 1149.6 74.6077C1147.55 72.5502 1146.4 69.7597 1146.4 66.85C1146.4 63.9403 1147.55 61.1498 1149.6 59.0924C1151.65 57.0349 1154.43 55.879 1157.32 55.879Z" fill="#1D2130"/>
<path d="M1157.32 55.879V77.821C1160.22 77.821 1163 76.6652 1165.04 74.6077C1167.09 72.5502 1168.24 69.7597 1168.24 66.85C1168.24 63.9403 1167.09 61.1498 1165.04 59.0924C1163 57.0349 1160.22 55.879 1157.32 55.879Z" fill="#1D2130"/>
<path d="M1277.68 63.3944C1278.96 63.3944 1280 62.3503 1280 61.0624C1280 59.7745 1278.96 58.7304 1277.68 58.7304C1276.4 58.7304 1275.36 59.7745 1275.36 61.0624C1275.36 62.3503 1276.4 63.3944 1277.68 63.3944Z" fill="#1D2130"/>
</g>
<line x1="1280" y1="10.3413" x2="186" y2="10.3413" stroke="#E5E5E5"/>
<path d="M10.2344 9.95068C10.2344 11.0653 10.0417 12.0444 9.65625 12.8882C9.27083 13.7267 8.71875 14.3726 8 14.8257C7.28646 15.2736 6.46354 15.4976 5.53125 15.4976C4.60938 15.4976 3.78646 15.2736 3.0625 14.8257C2.34375 14.3726 1.78646 13.7293 1.39063 12.896C1 12.0627 0.802083 11.1017 0.796875 10.0132L0.796875 9.37256C0.796875 8.26318 0.992188 7.28402 1.38281 6.43506C1.77865 5.5861 2.33333 4.93766 3.04688 4.48975C3.76563 4.03662 4.58854 3.81006 5.51563 3.81006C6.44271 3.81006 7.26302 4.03402 7.97656 4.48193C8.69531 4.92464 9.25 5.56527 9.64063 6.40381C10.0313 7.23714 10.2292 8.2085 10.2344 9.31787V9.95068ZM8.25781 9.35693C8.25781 8.09652 8.01823 7.13037 7.53906 6.4585C7.0651 5.78662 6.39063 5.45068 5.51563 5.45068C4.66146 5.45068 3.99219 5.78662 3.50781 6.4585C3.02865 7.12516 2.78385 8.07048 2.77344 9.29443V9.95068C2.77344 11.2007 3.01563 12.1668 3.5 12.8491C3.98958 13.5314 4.66667 13.8726 5.53125 13.8726C6.40625 13.8726 7.07813 13.5392 7.54688 12.8726C8.02083 12.2059 8.25781 11.2319 8.25781 9.95068V9.35693ZM22.5234 3.96631L22.5234 11.5679C22.5234 12.7762 22.1354 13.7345 21.3594 14.4429C20.5885 15.146 19.5599 15.4976 18.2734 15.4976C16.9714 15.4976 15.9375 15.1512 15.1719 14.4585C14.4063 13.7606 14.0234 12.7944 14.0234 11.5601L14.0234 3.96631L15.9922 3.96631L15.9922 11.5757C15.9922 12.3361 16.1849 12.9168 16.5703 13.3179C16.9557 13.7189 17.5234 13.9194 18.2734 13.9194C19.7943 13.9194 20.5547 13.1174 20.5547 11.5132L20.5547 3.96631L22.5234 3.96631ZM30.8203 10.9585H28.6172L28.6172 15.3413L26.6406 15.3413L26.6406 3.96631L30.6406 3.96631C31.9531 3.96631 32.9661 4.26058 33.6797 4.84912C34.3932 5.43766 34.75 6.28923 34.75 7.40381C34.75 8.16423 34.5651 8.80225 34.1953 9.31787C33.8307 9.82829 33.3203 10.2215 32.6641 10.4976L35.2188 15.2397V15.3413H33.1016L30.8203 10.9585ZM28.6172 9.37256H30.6484C31.3151 9.37256 31.8359 9.20589 32.2109 8.87256C32.5859 8.53402 32.7734 8.07308 32.7734 7.48975C32.7734 6.88037 32.599 6.40902 32.25 6.07568C31.9062 5.74235 31.3906 5.57048 30.7031 5.56006L28.6172 5.56006V9.37256ZM50.5547 12.4116C50.5547 11.9116 50.3776 11.5262 50.0234 11.2554C49.6745 10.9845 49.0417 10.7111 48.125 10.4351C47.2083 10.159 46.4792 9.85173 45.9375 9.51318C44.901 8.86214 44.3828 8.01318 44.3828 6.96631C44.3828 6.04964 44.7552 5.29443 45.5 4.70068C46.25 4.10693 47.2214 3.81006 48.4141 3.81006C49.2057 3.81006 49.9115 3.95589 50.5312 4.24756C51.151 4.53923 51.638 4.95589 51.9922 5.49756C52.3464 6.03402 52.5234 6.63037 52.5234 7.28662L50.5547 7.28662C50.5547 6.69287 50.3672 6.22933 49.9922 5.896C49.6224 5.55745 49.0911 5.38818 48.3984 5.38818C47.7526 5.38818 47.25 5.5262 46.8906 5.80225C46.5365 6.07829 46.3594 6.4637 46.3594 6.9585C46.3594 7.37516 46.5521 7.72412 46.9375 8.00537C47.3229 8.28141 47.9583 8.55225 48.8438 8.81787C49.7292 9.07829 50.4401 9.37777 50.9766 9.71631C51.513 10.0496 51.9062 10.4351 52.1562 10.8726C52.4062 11.3049 52.5312 11.8127 52.5312 12.396C52.5312 13.3439 52.1667 14.0991 51.4375 14.6616C50.7135 15.2189 49.7292 15.4976 48.4844 15.4976C47.6615 15.4976 46.9036 15.3465 46.2109 15.0444C45.5234 14.7371 44.987 14.3153 44.6016 13.7788C44.2214 13.2424 44.0312 12.6174 44.0312 11.9038H46.0078C46.0078 12.5496 46.2214 13.0496 46.6484 13.4038C47.0755 13.758 47.6875 13.9351 48.4844 13.9351C49.1719 13.9351 49.6875 13.797 50.0312 13.521C50.3802 13.2397 50.5547 12.87 50.5547 12.4116ZM64.5859 3.96631V11.5679C64.5859 12.7762 64.1979 13.7345 63.4219 14.4429C62.651 15.146 61.6224 15.4976 60.3359 15.4976C59.0339 15.4976 58 15.1512 57.2344 14.4585C56.4688 13.7606 56.0859 12.7944 56.0859 11.5601V3.96631L58.0547 3.96631V11.5757C58.0547 12.3361 58.2474 12.9168 58.6328 13.3179C59.0182 13.7189 59.5859 13.9194 60.3359 13.9194C61.8568 13.9194 62.6172 13.1174 62.6172 11.5132V3.96631H64.5859ZM70.6797 11.1147V15.3413H68.7031V3.96631L73.0547 3.96631C74.3255 3.96631 75.3333 4.29704 76.0781 4.9585C76.8281 5.61995 77.2031 6.49495 77.2031 7.5835C77.2031 8.69808 76.8359 9.56527 76.1016 10.1851C75.3724 10.8049 74.349 11.1147 73.0312 11.1147L70.6797 11.1147ZM70.6797 9.52881L73.0547 9.52881C73.7578 9.52881 74.2943 9.36475 74.6641 9.03662C75.0339 8.70329 75.2188 8.22412 75.2188 7.59912C75.2188 6.98454 75.0312 6.49495 74.6562 6.13037C74.2812 5.76058 73.7656 5.57048 73.1094 5.56006H70.6797V9.52881ZM82.9141 11.1147V15.3413L80.9375 15.3413V3.96631L85.2891 3.96631C86.5599 3.96631 87.5677 4.29704 88.3125 4.9585C89.0625 5.61995 89.4375 6.49495 89.4375 7.5835C89.4375 8.69808 89.0703 9.56527 88.3359 10.1851C87.6068 10.8049 86.5833 11.1147 85.2656 11.1147H82.9141ZM82.9141 9.52881H85.2891C85.9922 9.52881 86.5286 9.36475 86.8984 9.03662C87.2682 8.70329 87.4531 8.22412 87.4531 7.59912C87.4531 6.98454 87.2656 6.49495 86.8906 6.13037C86.5156 5.76058 86 5.57048 85.3438 5.56006H82.9141V9.52881ZM102.25 9.95068C102.25 11.0653 102.057 12.0444 101.672 12.8882C101.286 13.7267 100.734 14.3726 100.016 14.8257C99.3021 15.2736 98.4792 15.4976 97.5469 15.4976C96.625 15.4976 95.8021 15.2736 95.0781 14.8257C94.3594 14.3726 93.8021 13.7293 93.4062 12.896C93.0156 12.0627 92.8177 11.1017 92.8125 10.0132V9.37256C92.8125 8.26318 93.0078 7.28402 93.3984 6.43506C93.7943 5.5861 94.349 4.93766 95.0625 4.48975C95.7812 4.03662 96.6042 3.81006 97.5312 3.81006C98.4583 3.81006 99.2786 4.03402 99.9922 4.48193C100.711 4.92464 101.266 5.56527 101.656 6.40381C102.047 7.23714 102.245 8.2085 102.25 9.31787V9.95068ZM100.273 9.35693C100.273 8.09652 100.034 7.13037 99.5547 6.4585C99.0807 5.78662 98.4062 5.45068 97.5312 5.45068C96.6771 5.45068 96.0078 5.78662 95.5234 6.4585C95.0443 7.12516 94.7995 8.07048 94.7891 9.29443V9.95068C94.7891 11.2007 95.0312 12.1668 95.5156 12.8491C96.0052 13.5314 96.6823 13.8726 97.5469 13.8726C98.4219 13.8726 99.0938 13.5392 99.5625 12.8726C100.036 12.2059 100.273 11.2319 100.273 9.95068V9.35693ZM110.398 10.9585H108.195V15.3413H106.219V3.96631L110.219 3.96631C111.531 3.96631 112.544 4.26058 113.258 4.84912C113.971 5.43766 114.328 6.28923 114.328 7.40381C114.328 8.16423 114.143 8.80225 113.773 9.31787C113.409 9.82829 112.898 10.2215 112.242 10.4976L114.797 15.2397V15.3413H112.68L110.398 10.9585ZM108.195 9.37256H110.227C110.893 9.37256 111.414 9.20589 111.789 8.87256C112.164 8.53402 112.352 8.07308 112.352 7.48975C112.352 6.88037 112.177 6.40902 111.828 6.07568C111.484 5.74235 110.969 5.57048 110.281 5.56006H108.195V9.37256ZM126.031 5.56006L122.484 5.56006V15.3413H120.523V5.56006L117.008 5.56006V3.96631L126.031 3.96631V5.56006ZM136.18 10.2632H131.508V13.7632H136.969V15.3413H129.531V3.96631L136.914 3.96631V5.56006L131.508 5.56006V8.70068H136.18V10.2632ZM144.758 10.9585H142.555V15.3413H140.578V3.96631L144.578 3.96631C145.891 3.96631 146.904 4.26058 147.617 4.84912C148.331 5.43766 148.688 6.28923 148.688 7.40381C148.688 8.16423 148.503 8.80225 148.133 9.31787C147.768 9.82829 147.258 10.2215 146.602 10.4976L149.156 15.2397V15.3413L147.039 15.3413L144.758 10.9585ZM142.555 9.37256H144.586C145.253 9.37256 145.773 9.20589 146.148 8.87256C146.523 8.53402 146.711 8.07308 146.711 7.48975C146.711 6.88037 146.536 6.40902 146.188 6.07568C145.844 5.74235 145.328 5.57048 144.641 5.56006H142.555V9.37256ZM158.508 12.4116C158.508 11.9116 158.331 11.5262 157.977 11.2554C157.628 10.9845 156.995 10.7111 156.078 10.4351C155.161 10.159 154.432 9.85173 153.891 9.51318C152.854 8.86214 152.336 8.01318 152.336 6.96631C152.336 6.04964 152.708 5.29443 153.453 4.70068C154.203 4.10693 155.174 3.81006 156.367 3.81006C157.159 3.81006 157.865 3.95589 158.484 4.24756C159.104 4.53923 159.591 4.95589 159.945 5.49756C160.299 6.03402 160.477 6.63037 160.477 7.28662H158.508C158.508 6.69287 158.32 6.22933 157.945 5.896C157.576 5.55745 157.044 5.38818 156.352 5.38818C155.706 5.38818 155.203 5.5262 154.844 5.80225C154.49 6.07829 154.312 6.4637 154.312 6.9585C154.312 7.37516 154.505 7.72412 154.891 8.00537C155.276 8.28141 155.911 8.55225 156.797 8.81787C157.682 9.07829 158.393 9.37777 158.93 9.71631C159.466 10.0496 159.859 10.4351 160.109 10.8726C160.359 11.3049 160.484 11.8127 160.484 12.396C160.484 13.3439 160.12 14.0991 159.391 14.6616C158.667 15.2189 157.682 15.4976 156.438 15.4976C155.615 15.4976 154.857 15.3465 154.164 15.0444C153.477 14.7371 152.94 14.3153 152.555 13.7788C152.174 13.2424 151.984 12.6174 151.984 11.9038H153.961C153.961 12.5496 154.174 13.0496 154.602 13.4038C155.029 13.758 155.641 13.9351 156.438 13.9351C157.125 13.9351 157.641 13.797 157.984 13.521C158.333 13.2397 158.508 12.87 158.508 12.4116Z" fill="#1D2130"/>
</svg>
