<svg width="376" height="100" viewBox="0 0 376 100" fill="none" xmlns="http://www.w3.org/2000/svg">
<path d="M104.328 60.5308L104.328 62.3589L98.6016 62.3589L98.6016 60.5308L104.328 60.5308ZM99.3594 50.9839L99.3594 62.3589L97.0156 62.3589L97.0156 50.9839L99.3594 50.9839ZM112.453 52.9292L109.359 62.3589L106.867 62.3589L111.094 50.9839L112.68 50.9839L112.453 52.9292ZM115.023 62.3589L111.922 52.9292L111.672 50.9839L113.273 50.9839L117.523 62.3589L115.023 62.3589ZM114.883 58.1245L114.883 59.9605L108.875 59.9605L108.875 58.1245L114.883 58.1245ZM121.109 50.9839L123.484 56.1714L125.859 50.9839L128.414 50.9839L124.672 58.2183L124.672 62.3589L122.297 62.3589L122.297 58.2183L118.547 50.9839L121.109 50.9839ZM135.047 52.9292L131.953 62.3589L129.461 62.3589L133.687 50.9839L135.273 50.9839L135.047 52.9292ZM137.617 62.3589L134.516 52.9292L134.266 50.9839L135.867 50.9839L140.117 62.3589L137.617 62.3589ZM137.477 58.1245L137.477 59.9605L131.469 59.9605L131.469 58.1245L137.477 58.1245ZM152.43 50.9839L152.43 62.3589L150.086 62.3589L145.516 54.7339L145.516 62.3589L143.172 62.3589L143.172 50.9839L145.516 50.9839L150.094 58.6167L150.094 50.9839L152.43 50.9839ZM161.234 52.9292L158.141 62.3589L155.648 62.3589L159.875 50.9839L161.461 50.9839L161.234 52.9292ZM163.805 62.3589L160.703 52.9292L160.453 50.9839L162.055 50.9839L166.305 62.3589L163.805 62.3589ZM163.664 58.1245L163.664 59.9605L157.656 59.9605L157.656 58.1245L163.664 58.1245ZM178.617 50.9839L178.617 62.3589L176.273 62.3589L171.703 54.7339L171.703 62.3589L169.359 62.3589L169.359 50.9839L171.703 50.9839L176.281 58.6167L176.281 50.9839L178.617 50.9839ZM190.203 50.9839L192.578 56.1714L194.953 50.9839L197.508 50.9839L193.766 58.2183L193.766 62.3589L191.391 62.3589L191.391 58.2183L187.641 50.9839L190.203 50.9839ZM204.141 52.9292L201.047 62.3589L198.555 62.3589L202.781 50.9839L204.367 50.9839L204.141 52.9292ZM206.711 62.3589L203.609 52.9292L203.359 50.9839L204.961 50.9839L209.211 62.3589L206.711 62.3589ZM206.57 58.1245L206.57 59.9605L200.562 59.9605L200.562 58.1245L206.57 58.1245ZM221.523 50.9839L221.523 62.3589L219.18 62.3589L214.609 54.7339L214.609 62.3589L212.266 62.3589L212.266 50.9839L214.609 50.9839L219.187 58.6167L219.187 50.9839L221.523 50.9839ZM234.578 56.4136L234.578 60.9214C234.401 61.135 234.128 61.3667 233.758 61.6167C233.388 61.8615 232.911 62.0725 232.328 62.2495C231.745 62.4266 231.039 62.5152 230.211 62.5152C229.477 62.5152 228.807 62.3954 228.203 62.1558C227.599 61.911 227.078 61.5542 226.641 61.0855C226.208 60.6167 225.875 60.0438 225.641 59.3667C225.406 58.6844 225.289 57.9058 225.289 57.0308L225.289 56.3198C225.289 55.4448 225.401 54.6662 225.625 53.9839C225.854 53.3016 226.18 52.7261 226.602 52.2573C227.023 51.7886 227.526 51.4318 228.109 51.187C228.693 50.9422 229.341 50.8198 230.055 50.8198C231.044 50.8198 231.857 50.9813 232.492 51.3042C233.128 51.6219 233.612 52.0646 233.945 52.6323C234.284 53.1948 234.492 53.8407 234.57 54.5698L232.297 54.5698C232.24 54.1844 232.13 53.8485 231.969 53.562C231.807 53.2756 231.576 53.0516 231.273 52.8902C230.977 52.7287 230.591 52.648 230.117 52.648C229.727 52.648 229.378 52.7287 229.07 52.8902C228.768 53.0464 228.513 53.2782 228.305 53.5855C228.096 53.8928 227.937 54.273 227.828 54.7261C227.719 55.1792 227.664 55.7053 227.664 56.3042L227.664 57.0308C227.664 57.6245 227.721 58.1506 227.836 58.6089C227.951 59.062 228.12 59.4448 228.344 59.7573C228.573 60.0646 228.854 60.2964 229.187 60.4527C229.521 60.6089 229.909 60.687 230.352 60.687C230.721 60.687 231.029 60.6558 231.273 60.5933C231.523 60.5308 231.724 60.4553 231.875 60.3667C232.031 60.273 232.151 60.1844 232.234 60.1011L232.234 58.0855L230.094 58.0855L230.094 56.4136L234.578 56.4136ZM246.797 50.9839L246.797 62.3589L244.453 62.3589L244.453 50.9839L246.797 50.9839ZM253.609 50.9839L249.102 56.6011L246.5 59.398L246.078 57.1792L247.836 54.773L250.734 50.9839L253.609 50.9839ZM250.945 62.3589L247.594 57.1011L249.328 55.648L253.719 62.3589L250.945 62.3589ZM261.25 52.9292L258.156 62.3589L255.664 62.3589L259.891 50.9839L261.477 50.9839L261.25 52.9292ZM263.82 62.3589L260.719 52.9292L260.469 50.9839L262.07 50.9839L266.32 62.3589L263.82 62.3589ZM263.68 58.1245L263.68 59.9605L257.672 59.9605L257.672 58.1245L263.68 58.1245ZM270.445 50.9839L272.43 50.9839L275.352 59.3355L278.273 50.9839L280.258 50.9839L276.148 62.3589L274.555 62.3589L270.445 50.9839ZM269.375 50.9839L271.352 50.9839L271.711 59.1245L271.711 62.3589L269.375 62.3589L269.375 50.9839ZM279.352 50.9839L281.336 50.9839L281.336 62.3589L278.992 62.3589L278.992 59.1245L279.352 50.9839ZM287.883 50.9839L287.883 62.3589L285.547 62.3589L285.547 50.9839L287.883 50.9839ZM302.516 57.3667L299.594 57.3667L299.578 55.7574L302.031 55.7574C302.464 55.7574 302.818 55.7027 303.094 55.5933C303.37 55.4787 303.576 55.3147 303.711 55.1011C303.852 54.8824 303.922 54.6167 303.922 54.3042C303.922 53.9501 303.854 53.6636 303.719 53.4449C303.589 53.2261 303.383 53.0673 303.102 52.9683C302.826 52.8693 302.469 52.8199 302.031 52.8199L300.406 52.8199L300.406 62.3589L298.062 62.3589L298.062 50.9839L302.031 50.9839C302.693 50.9839 303.284 51.0464 303.805 51.1714C304.331 51.2964 304.776 51.4865 305.141 51.7417C305.505 51.9969 305.784 52.3199 305.977 52.7105C306.169 53.0959 306.266 53.5542 306.266 54.0855C306.266 54.5542 306.159 54.9865 305.945 55.3824C305.737 55.7782 305.406 56.1011 304.953 56.3511C304.505 56.6011 303.919 56.7391 303.195 56.7652L302.516 57.3667ZM302.414 62.3589L298.953 62.3589L299.867 60.5308L302.414 60.5308C302.826 60.5308 303.161 60.4657 303.422 60.3355C303.682 60.2001 303.875 60.0178 304 59.7886C304.125 59.5594 304.187 59.2964 304.187 58.9995C304.187 58.6662 304.13 58.3772 304.016 58.1324C303.906 57.8876 303.729 57.7001 303.484 57.5699C303.24 57.4344 302.917 57.3667 302.516 57.3667L300.258 57.3667L300.273 55.7574L303.086 55.7574L303.625 56.3902C304.318 56.3798 304.875 56.5022 305.297 56.7574C305.724 57.0074 306.034 57.3329 306.227 57.7339C306.424 58.135 306.523 58.5647 306.523 59.023C306.523 59.7522 306.365 60.3667 306.047 60.8667C305.729 61.3615 305.263 61.7339 304.648 61.9839C304.039 62.2339 303.294 62.3589 302.414 62.3589ZM317.914 60.5308L317.914 62.3589L311.859 62.3589L311.859 60.5308L317.914 60.5308ZM312.625 50.9839L312.625 62.3589L310.281 62.3589L310.281 50.9839L312.625 50.9839ZM317.125 55.6167L317.125 57.398L311.859 57.398L311.859 55.6167L317.125 55.6167ZM317.906 50.9839L317.906 52.8199L311.859 52.8199L311.859 50.9839L317.906 50.9839ZM321.281 50.9839L325.523 50.9839C326.393 50.9839 327.141 51.1141 327.766 51.3746C328.396 51.635 328.88 52.0204 329.219 52.5308C329.557 53.0412 329.727 53.6688 329.727 54.4136C329.727 55.023 329.622 55.5464 329.414 55.9839C329.211 56.4162 328.922 56.7782 328.547 57.0699C328.177 57.3563 327.742 57.5855 327.242 57.7574L326.5 58.148L322.812 58.148L322.797 56.3199L325.539 56.3199C325.951 56.3199 326.292 56.2469 326.562 56.1011C326.833 55.9553 327.036 55.7522 327.172 55.4917C327.312 55.2313 327.383 54.9292 327.383 54.5855C327.383 54.2209 327.315 53.9058 327.18 53.6402C327.044 53.3746 326.839 53.1714 326.562 53.0308C326.286 52.8902 325.94 52.8199 325.523 52.8199L323.625 52.8199L323.625 62.3589L321.281 62.3589L321.281 50.9839ZM327.641 62.3589L325.047 57.2886L327.523 57.273L330.148 62.2496L330.148 62.3589L327.641 62.3589ZM336.023 50.9839L336.023 62.3589L333.687 62.3589L333.687 50.9839L336.023 50.9839ZM342.562 50.9839L342.562 62.3589L340.219 62.3589L340.219 50.9839L342.562 50.9839ZM349.375 50.9839L344.867 56.6011L342.266 59.398L341.844 57.1792L343.602 54.773L346.5 50.9839L349.375 50.9839ZM346.711 62.3589L343.359 57.1011L345.094 55.648L349.484 62.3589L346.711 62.3589ZM357.016 52.9292L353.922 62.3589L351.43 62.3589L355.656 50.9839L357.242 50.9839L357.016 52.9292ZM359.586 62.3589L356.484 52.9292L356.234 50.9839L357.836 50.9839L362.086 62.3589L359.586 62.3589ZM359.445 58.1246L359.445 59.9605L353.437 59.9605L353.437 58.1246L359.445 58.1246ZM374.398 50.9839L374.398 62.3589L372.055 62.3589L367.484 54.7339L367.484 62.3589L365.141 62.3589L365.141 50.9839L367.484 50.9839L372.062 58.6167L372.062 50.9839L374.398 50.9839Z" fill="#1D2130"/>
<path d="M0 56.8589H72" stroke="#1D2130" stroke-width="2"/>
</svg>
