<svg width="1280" height="21" viewBox="0 0 1280 21" fill="none" xmlns="http://www.w3.org/2000/svg">
<path d="M10.3809 17H1.77637L1.77637 15.5322L6.03906 10.8828C6.6543 10.1973 7.09082 9.62598 7.34863 9.16895C7.6123 8.70605 7.74414 8.24316 7.74414 7.78027C7.74414 7.1709 7.57129 6.67871 7.22559 6.30371C6.88574 5.92871 6.42578 5.74121 5.8457 5.74121C5.1543 5.74121 4.61816 5.95215 4.2373 6.37402C3.85645 6.7959 3.66602 7.37305 3.66602 8.10547H1.53027C1.53027 7.32617 1.70605 6.62598 2.05762 6.00488C2.41504 5.37793 2.92187 4.8916 3.57812 4.5459C4.24023 4.2002 5.00195 4.02734 5.86328 4.02734C7.10547 4.02734 8.08398 4.34082 8.79883 4.96777C9.51953 5.58887 9.87988 6.4502 9.87988 7.55176C9.87988 8.19043 9.69824 8.86133 9.33496 9.56445C8.97754 10.2617 8.38867 11.0557 7.56836 11.9463L4.43945 15.2949L10.3809 15.2949L10.3809 17ZM14.4766 9.62598H15.7773C16.4336 9.62012 16.9521 9.4502 17.333 9.11621C17.7197 8.78223 17.9131 8.29883 17.9131 7.66602C17.9131 7.05664 17.752 6.58496 17.4297 6.25098C17.1133 5.91113 16.627 5.74121 15.9707 5.74121C15.3965 5.74121 14.9248 5.9082 14.5557 6.24219C14.1865 6.57031 14.002 7.00098 14.002 7.53418L11.8662 7.53418C11.8662 6.87793 12.0391 6.28027 12.3848 5.74121C12.7363 5.20215 13.2227 4.7832 13.8438 4.48438C14.4707 4.17969 15.1709 4.02734 15.9443 4.02734C17.2217 4.02734 18.2236 4.34961 18.9502 4.99414C19.6826 5.63281 20.0488 6.52344 20.0488 7.66602C20.0488 8.24023 19.8643 8.78223 19.4951 9.29199C19.1318 9.7959 18.6602 10.1768 18.0801 10.4346C18.7832 10.6748 19.3164 11.0527 19.6797 11.5684C20.0488 12.084 20.2334 12.6992 20.2334 13.4141C20.2334 14.5625 19.8379 15.4766 19.0469 16.1563C18.2617 16.8359 17.2275 17.1758 15.9443 17.1758C14.7139 17.1758 13.7061 16.8477 12.9209 16.1914C12.1357 15.5352 11.7432 14.6621 11.7432 13.5723H13.8789C13.8789 14.1348 14.0664 14.5918 14.4414 14.9434C14.8223 15.2949 15.332 15.4707 15.9707 15.4707C16.6328 15.4707 17.1543 15.2949 17.5352 14.9434C17.916 14.5918 18.1064 14.082 18.1064 13.4141C18.1064 12.7402 17.9072 12.2217 17.5088 11.8584C17.1104 11.4951 16.5186 11.3135 15.7334 11.3135H14.4766V9.62598ZM22.6768 19.8828L21.5254 19.1973C21.8652 18.6641 22.0967 18.1982 22.2197 17.7998C22.3486 17.4072 22.416 17.0059 22.4219 16.5957V14.9346H24.3467L24.3379 16.4727C24.332 17.0938 24.1738 17.7148 23.8633 18.3359C23.5586 18.9629 23.1631 19.4785 22.6768 19.8828ZM34.252 7.57813C34.252 8.20508 34.0908 8.76465 33.7686 9.25684C33.4463 9.74316 33.0068 10.127 32.4502 10.4082C33.1182 10.7188 33.6309 11.1436 33.9883 11.6826C34.3516 12.2217 34.5332 12.8311 34.5332 13.5107C34.5332 14.6357 34.1523 15.5293 33.3906 16.1914C32.6289 16.8477 31.6152 17.1758 30.3496 17.1758C29.0781 17.1758 28.0586 16.8447 27.291 16.1826C26.5293 15.5205 26.1484 14.6299 26.1484 13.5107C26.1484 12.8252 26.3301 12.21 26.6934 11.665C27.0566 11.1201 27.5664 10.7012 28.2227 10.4082C27.6719 10.127 27.2354 9.74316 26.9131 9.25684C26.5967 8.76465 26.4385 8.20508 26.4385 7.57813C26.4385 6.48828 26.79 5.62402 27.4932 4.98535C28.1963 4.34668 29.1455 4.02734 30.3408 4.02734C31.542 4.02734 32.4941 4.34668 33.1973 4.98535C33.9004 5.62402 34.252 6.48828 34.252 7.57813ZM32.3975 13.4053C32.3975 12.7725 32.207 12.2627 31.8262 11.876C31.4512 11.4834 30.9531 11.2871 30.332 11.2871C29.7109 11.2871 29.2129 11.4805 28.8379 11.8672C28.4687 12.2539 28.2842 12.7666 28.2842 13.4053C28.2842 14.0322 28.4658 14.5332 28.8291 14.9082C29.1982 15.2832 29.7051 15.4707 30.3496 15.4707C30.9941 15.4707 31.4951 15.2891 31.8525 14.9258C32.2158 14.5625 32.3975 14.0557 32.3975 13.4053ZM32.125 7.65723C32.125 7.10059 31.9639 6.64355 31.6416 6.28613C31.3193 5.92285 30.8857 5.74121 30.3408 5.74121C29.7959 5.74121 29.3652 5.91406 29.0488 6.25977C28.7324 6.59961 28.5742 7.06543 28.5742 7.65723C28.5742 8.24316 28.7324 8.70898 29.0488 9.05469C29.3711 9.40039 29.8047 9.57324 30.3496 9.57324C30.8945 9.57324 31.3252 9.40039 31.6416 9.05469C31.9639 8.70898 32.125 8.24316 32.125 7.65723ZM44.7637 11.6123C44.7637 13.4521 44.418 14.8408 43.7266 15.7783C43.041 16.71 41.9951 17.1758 40.5889 17.1758C39.2061 17.1758 38.1631 16.7217 37.46 15.8135C36.7627 14.8994 36.4053 13.5488 36.3877 11.7617V9.54688C36.3877 7.70703 36.7305 6.32715 37.416 5.40723C38.1074 4.4873 39.1592 4.02734 40.5713 4.02734C41.9717 4.02734 43.0146 4.47559 43.7002 5.37207C44.3916 6.26855 44.7461 7.61035 44.7637 9.39746V11.6123ZM42.6279 9.22168C42.6279 8.02051 42.4639 7.1416 42.1357 6.58496C41.8076 6.02246 41.2861 5.74121 40.5713 5.74121C39.874 5.74121 39.3613 6.00781 39.0332 6.54102C38.7051 7.06836 38.5322 7.89453 38.5146 9.01953V11.9199C38.5146 13.1152 38.6816 14.0059 39.0156 14.5918C39.3496 15.1777 39.874 15.4707 40.5889 15.4707C41.2744 15.4707 41.7812 15.2012 42.1094 14.6621C42.4375 14.1172 42.6104 13.2676 42.6279 12.1133V9.22168ZM54.9941 11.6123C54.9941 13.4521 54.6484 14.8408 53.957 15.7783C53.2715 16.71 52.2256 17.1758 50.8193 17.1758C49.4365 17.1758 48.3936 16.7217 47.6904 15.8135C46.9932 14.8994 46.6357 13.5488 46.6182 11.7617V9.54688C46.6182 7.70703 46.9609 6.32715 47.6465 5.40723C48.3379 4.4873 49.3896 4.02734 50.8018 4.02734C52.2021 4.02734 53.2451 4.47559 53.9307 5.37207C54.6221 6.26855 54.9766 7.61035 54.9941 9.39746V11.6123ZM52.8584 9.22168C52.8584 8.02051 52.6943 7.1416 52.3662 6.58496C52.0381 6.02246 51.5166 5.74121 50.8018 5.74121C50.1045 5.74121 49.5918 6.00781 49.2637 6.54102C48.9355 7.06836 48.7627 7.89453 48.7451 9.01953V11.9199C48.7451 13.1152 48.9121 14.0059 49.2461 14.5918C49.5801 15.1777 50.1045 15.4707 50.8193 15.4707C51.5049 15.4707 52.0117 15.2012 52.3398 14.6621C52.668 14.1172 52.8408 13.2676 52.8584 12.1133V9.22168ZM64.1787 5.17871V7.49023H65.8574V9.07227H64.1787V14.3809C64.1787 14.7441 64.249 15.0078 64.3896 15.1719C64.5361 15.3301 64.7939 15.4092 65.1631 15.4092C65.4092 15.4092 65.6582 15.3799 65.9102 15.3213V16.9736C65.4238 17.1084 64.9551 17.1758 64.5039 17.1758C62.8633 17.1758 62.043 16.2705 62.043 14.46V9.07227L60.4785 9.07227V7.49023H62.043V5.17871L64.1787 5.17871ZM72.4756 9.44141C72.1943 9.39453 71.9043 9.37109 71.6055 9.37109C70.627 9.37109 69.9678 9.74609 69.6279 10.4961V17H67.4922V7.49023L69.5312 7.49023L69.584 8.55371C70.0996 7.72754 70.8145 7.31445 71.7285 7.31445C72.0332 7.31445 72.2852 7.35547 72.4844 7.4375L72.4756 9.44141ZM77.8369 17.1758C76.4834 17.1758 75.3848 16.751 74.541 15.9014C73.7031 15.0459 73.2842 13.9092 73.2842 12.4912V12.2275C73.2842 11.2783 73.4658 10.4316 73.8291 9.6875C74.1982 8.9375 74.7139 8.35449 75.376 7.93848C76.0381 7.52246 76.7764 7.31445 77.5908 7.31445C78.8857 7.31445 79.8848 7.72754 80.5879 8.55371C81.2969 9.37988 81.6514 10.5488 81.6514 12.0605V12.9219H75.4375C75.502 13.707 75.7627 14.3281 76.2197 14.7852C76.6826 15.2422 77.2627 15.4707 77.96 15.4707C78.9385 15.4707 79.7354 15.0752 80.3506 14.2842L81.502 15.3828C81.1211 15.9512 80.6113 16.3936 79.9727 16.71C79.3398 17.0205 78.6279 17.1758 77.8369 17.1758ZM77.582 9.02832C76.9961 9.02832 76.5215 9.2334 76.1582 9.64355C75.8008 10.0537 75.5723 10.625 75.4727 11.3574H79.542V11.1992C79.4951 10.4844 79.3047 9.94531 78.9707 9.58203C78.6367 9.21289 78.1738 9.02832 77.582 9.02832ZM87.5049 17.1758C86.1514 17.1758 85.0527 16.751 84.209 15.9014C83.3711 15.0459 82.9521 13.9092 82.9521 12.4912V12.2275C82.9521 11.2783 83.1338 10.4316 83.4971 9.6875C83.8662 8.9375 84.3818 8.35449 85.0439 7.93848C85.7061 7.52246 86.4443 7.31445 87.2588 7.31445C88.5537 7.31445 89.5527 7.72754 90.2559 8.55371C90.9648 9.37988 91.3193 10.5488 91.3193 12.0605V12.9219H85.1055C85.1699 13.707 85.4307 14.3281 85.8877 14.7852C86.3506 15.2422 86.9307 15.4707 87.6279 15.4707C88.6064 15.4707 89.4033 15.0752 90.0186 14.2842L91.1699 15.3828C90.7891 15.9512 90.2793 16.3936 89.6406 16.71C89.0078 17.0205 88.2959 17.1758 87.5049 17.1758ZM87.25 9.02832C86.6641 9.02832 86.1895 9.2334 85.8262 9.64355C85.4688 10.0537 85.2402 10.625 85.1406 11.3574H89.21V11.1992C89.1631 10.4844 88.9727 9.94531 88.6387 9.58203C88.3047 9.21289 87.8418 9.02832 87.25 9.02832ZM98.3154 14.416C98.3154 14.0352 98.1572 13.7451 97.8408 13.5459C97.5303 13.3467 97.0117 13.1709 96.2852 13.0186C95.5586 12.8662 94.9521 12.6729 94.4658 12.4385C93.3994 11.9229 92.8662 11.1758 92.8662 10.1973C92.8662 9.37695 93.2119 8.69141 93.9033 8.14063C94.5947 7.58984 95.4736 7.31445 96.54 7.31445C97.6768 7.31445 98.5938 7.5957 99.291 8.1582C99.9941 8.7207 100.346 9.4502 100.346 10.3467H98.21C98.21 9.93652 98.0576 9.59668 97.7529 9.32715C97.4482 9.05176 97.0439 8.91406 96.54 8.91406C96.0713 8.91406 95.6875 9.02246 95.3887 9.23926C95.0957 9.45605 94.9492 9.74609 94.9492 10.1094C94.9492 10.4375 95.0869 10.6924 95.3623 10.874C95.6377 11.0557 96.1943 11.2402 97.0322 11.4277C97.8701 11.6094 98.5264 11.8291 99.001 12.0869C99.4814 12.3389 99.8359 12.6436 100.064 13.001C100.299 13.3584 100.416 13.792 100.416 14.3018C100.416 15.1572 100.062 15.8516 99.3525 16.3848C98.6436 16.9121 97.7148 17.1758 96.5664 17.1758C95.7871 17.1758 95.0928 17.0352 94.4834 16.7539C93.874 16.4727 93.3994 16.0859 93.0596 15.5938C92.7197 15.1016 92.5498 14.5713 92.5498 14.0029L94.624 14.0029C94.6533 14.5068 94.8438 14.8965 95.1953 15.1719C95.5469 15.4414 96.0127 15.5762 96.5928 15.5762C97.1553 15.5762 97.583 15.4707 97.876 15.2598C98.1689 15.043 98.3154 14.7617 98.3154 14.416ZM115.094 12.3418C115.094 13.8125 114.76 14.9873 114.092 15.8662C113.424 16.7393 112.527 17.1758 111.402 17.1758C110.359 17.1758 109.524 16.833 108.897 16.1475V20.6563H106.762V7.49023L108.73 7.49023L108.818 8.45703C109.445 7.69531 110.298 7.31445 111.376 7.31445C112.536 7.31445 113.444 7.74805 114.101 8.61523C114.763 9.47656 115.094 10.6748 115.094 12.21V12.3418ZM112.967 12.1572C112.967 11.208 112.776 10.4551 112.396 9.89844C112.021 9.3418 111.481 9.06348 110.778 9.06348C109.905 9.06348 109.278 9.42383 108.897 10.1445V14.3633C109.284 15.1016 109.917 15.4707 110.796 15.4707C111.476 15.4707 112.006 15.1982 112.387 14.6533C112.773 14.1025 112.967 13.2705 112.967 12.1572ZM119.181 17H117.045V3.5L119.181 3.5V17ZM127.196 17C127.103 16.8184 127.021 16.5225 126.95 16.1123C126.271 16.8213 125.438 17.1758 124.454 17.1758C123.499 17.1758 122.72 16.9033 122.116 16.3584C121.513 15.8135 121.211 15.1396 121.211 14.3369C121.211 13.3232 121.586 12.5469 122.336 12.0078C123.092 11.4629 124.17 11.1904 125.57 11.1904H126.88V10.5664C126.88 10.0742 126.742 9.68164 126.467 9.38867C126.191 9.08984 125.772 8.94043 125.21 8.94043C124.724 8.94043 124.325 9.06348 124.015 9.30957C123.704 9.5498 123.549 9.85742 123.549 10.2324H121.413C121.413 9.71094 121.586 9.22461 121.932 8.77344C122.277 8.31641 122.746 7.95898 123.338 7.70117C123.936 7.44336 124.601 7.31445 125.333 7.31445C126.446 7.31445 127.334 7.5957 127.996 8.1582C128.658 8.71484 128.998 9.5 129.016 10.5137V14.8027C129.016 15.6582 129.136 16.3408 129.376 16.8506V17H127.196ZM124.85 15.4619C125.271 15.4619 125.667 15.3594 126.036 15.1543C126.411 14.9492 126.692 14.6738 126.88 14.3281V12.5352H125.729C124.938 12.5352 124.343 12.6729 123.944 12.9482C123.546 13.2236 123.347 13.6133 123.347 14.1172C123.347 14.5273 123.481 14.8555 123.751 15.1016C124.026 15.3418 124.393 15.4619 124.85 15.4619ZM133.234 7.49023L133.296 8.58887C133.999 7.73926 134.922 7.31445 136.064 7.31445C138.045 7.31445 139.053 8.44824 139.088 10.7158V17H136.952V10.8389C136.952 10.2354 136.82 9.79004 136.557 9.50293C136.299 9.20996 135.874 9.06348 135.282 9.06348C134.421 9.06348 133.779 9.45313 133.357 10.2324V17H131.222V7.49023H133.234ZM143.948 5.17871V7.49023H145.627V9.07227H143.948V14.3809C143.948 14.7441 144.019 15.0078 144.159 15.1719C144.306 15.3301 144.563 15.4092 144.933 15.4092C145.179 15.4092 145.428 15.3799 145.68 15.3213V16.9736C145.193 17.1084 144.725 17.1758 144.273 17.1758C142.633 17.1758 141.812 16.2705 141.812 14.46V9.07227H140.248V7.49023L141.812 7.49023V5.17871H143.948ZM151.454 17.1758C150.101 17.1758 149.002 16.751 148.158 15.9014C147.32 15.0459 146.901 13.9092 146.901 12.4912V12.2275C146.901 11.2783 147.083 10.4316 147.446 9.6875C147.815 8.9375 148.331 8.35449 148.993 7.93848C149.655 7.52246 150.394 7.31445 151.208 7.31445C152.503 7.31445 153.502 7.72754 154.205 8.55371C154.914 9.37988 155.269 10.5488 155.269 12.0605V12.9219L149.055 12.9219C149.119 13.707 149.38 14.3281 149.837 14.7852C150.3 15.2422 150.88 15.4707 151.577 15.4707C152.556 15.4707 153.353 15.0752 153.968 14.2842L155.119 15.3828C154.738 15.9512 154.229 16.3936 153.59 16.71C152.957 17.0205 152.245 17.1758 151.454 17.1758ZM151.199 9.02832C150.613 9.02832 150.139 9.2334 149.775 9.64355C149.418 10.0537 149.189 10.625 149.09 11.3574L153.159 11.3574V11.1992C153.112 10.4844 152.922 9.94531 152.588 9.58203C152.254 9.21289 151.791 9.02832 151.199 9.02832ZM156.534 12.1748C156.534 10.71 156.874 9.53516 157.554 8.65039C158.233 7.75977 159.145 7.31445 160.287 7.31445C161.295 7.31445 162.109 7.66602 162.73 8.36914V3.5L164.866 3.5V17H162.933L162.827 16.0156C162.188 16.7891 161.336 17.1758 160.27 17.1758C159.156 17.1758 158.254 16.7275 157.562 15.8311C156.877 14.9346 156.534 13.7158 156.534 12.1748ZM158.67 12.3594C158.67 13.3262 158.854 14.082 159.224 14.627C159.599 15.166 160.129 15.4355 160.814 15.4355C161.688 15.4355 162.326 15.0459 162.73 14.2666V10.2061C162.338 9.44434 161.705 9.06348 160.832 9.06348C160.141 9.06348 159.607 9.33887 159.232 9.88965C158.857 10.4346 158.67 11.2578 158.67 12.3594Z" fill="white"/>
<path d="M1077.52 10.6543L1078.21 4.20313L1085.08 4.20313V6.04883L1079.99 6.04883L1079.64 9.10742C1080.23 8.76758 1080.9 8.59766 1081.64 8.59766C1082.86 8.59766 1083.8 8.9873 1084.48 9.7666C1085.16 10.5459 1085.5 11.5947 1085.5 12.9131C1085.5 14.2139 1085.12 15.251 1084.37 16.0244C1083.62 16.792 1082.59 17.1758 1081.29 17.1758C1080.12 17.1758 1079.14 16.8447 1078.37 16.1826C1077.6 15.5146 1077.19 14.6357 1077.12 13.5459H1079.19C1079.27 14.167 1079.49 14.6445 1079.86 14.9785C1080.22 15.3066 1080.69 15.4707 1081.28 15.4707C1081.94 15.4707 1082.45 15.2363 1082.81 14.7676C1083.18 14.2988 1083.36 13.6602 1083.36 12.8516C1083.36 12.0723 1083.16 11.457 1082.76 11.0059C1082.35 10.5488 1081.79 10.3203 1081.09 10.3203C1080.7 10.3203 1080.37 10.373 1080.1 10.4785C1079.83 10.5781 1079.54 10.7773 1079.22 11.0762L1077.52 10.6543ZM1095.24 7.57813C1095.24 8.20508 1095.08 8.76465 1094.75 9.25684C1094.43 9.74316 1093.99 10.127 1093.43 10.4082C1094.1 10.7188 1094.62 11.1436 1094.97 11.6826C1095.34 12.2217 1095.52 12.8311 1095.52 13.5107C1095.52 14.6357 1095.14 15.5293 1094.38 16.1914C1093.61 16.8477 1092.6 17.1758 1091.33 17.1758C1090.06 17.1758 1089.04 16.8447 1088.28 16.1826C1087.51 15.5205 1087.13 14.6299 1087.13 13.5107C1087.13 12.8252 1087.31 12.21 1087.68 11.665C1088.04 11.1201 1088.55 10.7012 1089.21 10.4082C1088.66 10.127 1088.22 9.74316 1087.9 9.25684C1087.58 8.76465 1087.42 8.20508 1087.42 7.57813C1087.42 6.48828 1087.77 5.62402 1088.48 4.98535C1089.18 4.34668 1090.13 4.02734 1091.33 4.02734C1092.53 4.02734 1093.48 4.34668 1094.18 4.98535C1094.88 5.62402 1095.24 6.48828 1095.24 7.57813ZM1093.38 13.4053C1093.38 12.7725 1093.19 12.2627 1092.81 11.876C1092.44 11.4834 1091.94 11.2871 1091.32 11.2871C1090.7 11.2871 1090.2 11.4805 1089.82 11.8672C1089.45 12.2539 1089.27 12.7666 1089.27 13.4053C1089.27 14.0322 1089.45 14.5332 1089.81 14.9082C1090.18 15.2832 1090.69 15.4707 1091.33 15.4707C1091.98 15.4707 1092.48 15.2891 1092.84 14.9258C1093.2 14.5625 1093.38 14.0557 1093.38 13.4053ZM1093.11 7.65723C1093.11 7.10059 1092.95 6.64355 1092.63 6.28613C1092.3 5.92285 1091.87 5.74121 1091.33 5.74121C1090.78 5.74121 1090.35 5.91406 1090.03 6.25977C1089.72 6.59961 1089.56 7.06543 1089.56 7.65723C1089.56 8.24316 1089.72 8.70898 1090.03 9.05469C1090.36 9.40039 1090.79 9.57324 1091.33 9.57324C1091.88 9.57324 1092.31 9.40039 1092.63 9.05469C1092.95 8.70898 1093.11 8.24316 1093.11 7.65723ZM1104.63 12.4385H1106.22V14.1523H1104.63V17H1102.5V14.1523H1096.97L1096.91 12.8516L1102.43 4.20313H1104.63V12.4385ZM1099.15 12.4385H1102.5V7.09473L1102.34 7.37598L1099.15 12.4385ZM1115.98 11.6123C1115.98 13.4521 1115.63 14.8408 1114.94 15.7783C1114.26 16.71 1113.21 17.1758 1111.8 17.1758C1110.42 17.1758 1109.38 16.7217 1108.67 15.8135C1107.98 14.8994 1107.62 13.5488 1107.6 11.7617V9.54688C1107.6 7.70703 1107.95 6.32715 1108.63 5.40723C1109.32 4.4873 1110.37 4.02734 1111.79 4.02734C1113.19 4.02734 1114.23 4.47559 1114.92 5.37207C1115.61 6.26855 1115.96 7.61035 1115.98 9.39746V11.6123ZM1113.84 9.22168C1113.84 8.02051 1113.68 7.1416 1113.35 6.58496C1113.02 6.02246 1112.5 5.74121 1111.79 5.74121C1111.09 5.74121 1110.58 6.00781 1110.25 6.54102C1109.92 7.06836 1109.75 7.89453 1109.73 9.01953V11.9199C1109.73 13.1152 1109.9 14.0059 1110.23 14.5918C1110.56 15.1777 1111.09 15.4707 1111.8 15.4707C1112.49 15.4707 1113 15.2012 1113.32 14.6621C1113.65 14.1172 1113.83 13.2676 1113.84 12.1133V9.22168ZM1122.09 12.1748C1122.09 10.71 1122.43 9.53516 1123.11 8.65039C1123.79 7.75977 1124.7 7.31445 1125.84 7.31445C1126.85 7.31445 1127.66 7.66602 1128.28 8.36914V3.5L1130.42 3.5V17L1128.49 17L1128.38 16.0156C1127.74 16.7891 1126.89 17.1758 1125.82 17.1758C1124.71 17.1758 1123.81 16.7275 1123.12 15.8311C1122.43 14.9346 1122.09 13.7158 1122.09 12.1748ZM1124.22 12.3594C1124.22 13.3262 1124.41 14.082 1124.78 14.627C1125.15 15.166 1125.68 15.4355 1126.37 15.4355C1127.24 15.4355 1127.88 15.0459 1128.28 14.2666V10.2061C1127.89 9.44434 1127.26 9.06348 1126.38 9.06348C1125.69 9.06348 1125.16 9.33887 1124.79 9.88965C1124.41 10.4346 1124.22 11.2578 1124.22 12.3594ZM1132.25 12.1572C1132.25 11.2256 1132.43 10.3877 1132.8 9.64355C1133.17 8.89355 1133.69 8.31934 1134.36 7.9209C1135.02 7.5166 1135.79 7.31445 1136.66 7.31445C1137.94 7.31445 1138.98 7.72754 1139.78 8.55371C1140.58 9.37988 1141.02 10.4756 1141.08 11.8408L1141.09 12.3418C1141.09 13.2793 1140.91 14.1172 1140.54 14.8555C1140.19 15.5938 1139.67 16.165 1139 16.5693C1138.33 16.9736 1137.56 17.1758 1136.68 17.1758C1135.33 17.1758 1134.26 16.7305 1133.45 15.8398C1132.65 14.9434 1132.25 13.751 1132.25 12.2627V12.1572ZM1134.38 12.3418C1134.38 13.3203 1134.58 14.0879 1134.99 14.6445C1135.39 15.1953 1135.96 15.4707 1136.68 15.4707C1137.4 15.4707 1137.96 15.1895 1138.36 14.627C1138.76 14.0645 1138.96 13.2412 1138.96 12.1572C1138.96 11.1963 1138.75 10.4346 1138.34 9.87207C1137.93 9.30957 1137.37 9.02832 1136.66 9.02832C1135.96 9.02832 1135.41 9.30664 1135 9.86328C1134.59 10.4141 1134.38 11.2402 1134.38 12.3418ZM1144.88 7.49023L1144.94 8.58887C1145.64 7.73926 1146.56 7.31445 1147.71 7.31445C1149.69 7.31445 1150.7 8.44824 1150.73 10.7158V17H1148.59V10.8389C1148.59 10.2354 1148.46 9.79004 1148.2 9.50293C1147.94 9.20996 1147.52 9.06348 1146.92 9.06348C1146.06 9.06348 1145.42 9.45313 1145 10.2324V17H1142.86V7.49023L1144.88 7.49023ZM1158.6 17C1158.5 16.8184 1158.42 16.5225 1158.35 16.1123C1157.67 16.8213 1156.84 17.1758 1155.85 17.1758C1154.9 17.1758 1154.12 16.9033 1153.52 16.3584C1152.91 15.8135 1152.61 15.1396 1152.61 14.3369C1152.61 13.3232 1152.99 12.5469 1153.74 12.0078C1154.49 11.4629 1155.57 11.1904 1156.97 11.1904L1158.28 11.1904V10.5664C1158.28 10.0742 1158.14 9.68164 1157.87 9.38867C1157.59 9.08984 1157.17 8.94043 1156.61 8.94043C1156.12 8.94043 1155.73 9.06348 1155.42 9.30957C1155.1 9.5498 1154.95 9.85742 1154.95 10.2324H1152.81C1152.81 9.71094 1152.99 9.22461 1153.33 8.77344C1153.68 8.31641 1154.15 7.95898 1154.74 7.70117C1155.34 7.44336 1156 7.31445 1156.73 7.31445C1157.85 7.31445 1158.73 7.5957 1159.4 8.1582C1160.06 8.71484 1160.4 9.5 1160.42 10.5137V14.8027C1160.42 15.6582 1160.54 16.3408 1160.78 16.8506V17H1158.6ZM1156.25 15.4619C1156.67 15.4619 1157.07 15.3594 1157.44 15.1543C1157.81 14.9492 1158.09 14.6738 1158.28 14.3281V12.5352L1157.13 12.5352C1156.34 12.5352 1155.74 12.6729 1155.34 12.9482C1154.95 13.2236 1154.75 13.6133 1154.75 14.1172C1154.75 14.5273 1154.88 14.8555 1155.15 15.1016C1155.43 15.3418 1155.79 15.4619 1156.25 15.4619ZM1165.33 5.17871V7.49023L1167.01 7.49023V9.07227H1165.33V14.3809C1165.33 14.7441 1165.4 15.0078 1165.54 15.1719C1165.69 15.3301 1165.94 15.4092 1166.31 15.4092C1166.56 15.4092 1166.81 15.3799 1167.06 15.3213V16.9736C1166.57 17.1084 1166.11 17.1758 1165.65 17.1758C1164.01 17.1758 1163.19 16.2705 1163.19 14.46V9.07227H1161.63V7.49023H1163.19V5.17871H1165.33ZM1170.92 17H1168.78V7.49023H1170.92V17ZM1168.65 5.02051C1168.65 4.69238 1168.75 4.41992 1168.96 4.20313C1169.17 3.98633 1169.47 3.87793 1169.86 3.87793C1170.24 3.87793 1170.54 3.98633 1170.75 4.20313C1170.96 4.41992 1171.07 4.69238 1171.07 5.02051C1171.07 5.34277 1170.96 5.6123 1170.75 5.8291C1170.54 6.04004 1170.24 6.14551 1169.86 6.14551C1169.47 6.14551 1169.17 6.04004 1168.96 5.8291C1168.75 5.6123 1168.65 5.34277 1168.65 5.02051ZM1172.85 12.1572C1172.85 11.2256 1173.04 10.3877 1173.41 9.64355C1173.78 8.89355 1174.29 8.31934 1174.96 7.9209C1175.63 7.5166 1176.4 7.31445 1177.26 7.31445C1178.55 7.31445 1179.59 7.72754 1180.38 8.55371C1181.19 9.37988 1181.62 10.4756 1181.69 11.8408L1181.69 12.3418C1181.69 13.2793 1181.51 14.1172 1181.15 14.8555C1180.79 15.5938 1180.28 16.165 1179.6 16.5693C1178.93 16.9736 1178.16 17.1758 1177.28 17.1758C1175.94 17.1758 1174.87 16.7305 1174.06 15.8398C1173.25 14.9434 1172.85 13.751 1172.85 12.2627V12.1572ZM1174.99 12.3418C1174.99 13.3203 1175.19 14.0879 1175.59 14.6445C1176 15.1953 1176.56 15.4707 1177.28 15.4707C1178 15.4707 1178.56 15.1895 1178.96 14.627C1179.37 14.0645 1179.57 13.2412 1179.57 12.1572C1179.57 11.1963 1179.36 10.4346 1178.94 9.87207C1178.53 9.30957 1177.97 9.02832 1177.26 9.02832C1176.57 9.02832 1176.01 9.30664 1175.6 9.86328C1175.19 10.4141 1174.99 11.2402 1174.99 12.3418ZM1185.48 7.49023L1185.54 8.58887C1186.25 7.73926 1187.17 7.31445 1188.31 7.31445C1190.29 7.31445 1191.3 8.44824 1191.34 10.7158V17H1189.2V10.8389C1189.2 10.2354 1189.07 9.79004 1188.8 9.50293C1188.55 9.20996 1188.12 9.06348 1187.53 9.06348C1186.67 9.06348 1186.03 9.45313 1185.61 10.2324V17H1183.47V7.49023H1185.48ZM1198.85 14.416C1198.85 14.0352 1198.69 13.7451 1198.38 13.5459C1198.07 13.3467 1197.55 13.1709 1196.82 13.0186C1196.09 12.8662 1195.49 12.6729 1195 12.4385C1193.93 11.9229 1193.4 11.1758 1193.4 10.1973C1193.4 9.37695 1193.75 8.69141 1194.44 8.14063C1195.13 7.58984 1196.01 7.31445 1197.08 7.31445C1198.21 7.31445 1199.13 7.5957 1199.83 8.1582C1200.53 8.7207 1200.88 9.4502 1200.88 10.3467H1198.75C1198.75 9.93652 1198.59 9.59668 1198.29 9.32715C1197.98 9.05176 1197.58 8.91406 1197.08 8.91406C1196.61 8.91406 1196.22 9.02246 1195.92 9.23926C1195.63 9.45605 1195.48 9.74609 1195.48 10.1094C1195.48 10.4375 1195.62 10.6924 1195.9 10.874C1196.17 11.0557 1196.73 11.2402 1197.57 11.4277C1198.41 11.6094 1199.06 11.8291 1199.54 12.0869C1200.02 12.3389 1200.37 12.6436 1200.6 13.001C1200.83 13.3584 1200.95 13.792 1200.95 14.3018C1200.95 15.1572 1200.6 15.8516 1199.89 16.3848C1199.18 16.9121 1198.25 17.1758 1197.1 17.1758C1196.32 17.1758 1195.63 17.0352 1195.02 16.7539C1194.41 16.4727 1193.93 16.0859 1193.59 15.5938C1193.25 15.1016 1193.08 14.5713 1193.08 14.0029H1195.16C1195.19 14.5068 1195.38 14.8965 1195.73 15.1719C1196.08 15.4414 1196.55 15.5762 1197.13 15.5762C1197.69 15.5762 1198.12 15.4707 1198.41 15.2598C1198.7 15.043 1198.85 14.7617 1198.85 14.416ZM1211.21 15.4707C1211.74 15.4707 1212.18 15.3154 1212.54 15.0049C1212.89 14.6943 1213.07 14.3105 1213.1 13.8535H1215.11C1215.09 14.4453 1214.9 14.999 1214.56 15.5146C1214.21 16.0244 1213.74 16.4287 1213.15 16.7275C1212.56 17.0264 1211.92 17.1758 1211.23 17.1758C1209.9 17.1758 1208.85 16.7451 1208.07 15.8838C1207.29 15.0225 1206.9 13.833 1206.9 12.3154V12.0957C1206.9 10.6484 1207.29 9.49121 1208.06 8.62402C1208.83 7.75098 1209.89 7.31445 1211.23 7.31445C1212.36 7.31445 1213.28 7.64551 1213.99 8.30762C1214.7 8.96387 1215.08 9.82813 1215.11 10.9004H1213.1C1213.07 10.3555 1212.89 9.90723 1212.54 9.55566C1212.19 9.2041 1211.75 9.02832 1211.21 9.02832C1210.52 9.02832 1209.98 9.28027 1209.61 9.78418C1209.23 10.2822 1209.04 11.041 1209.04 12.0605V12.4033C1209.04 13.4346 1209.22 14.2051 1209.59 14.7148C1209.97 15.2188 1210.5 15.4707 1211.21 15.4707ZM1216.32 12.1572C1216.32 11.2256 1216.51 10.3877 1216.88 9.64355C1217.25 8.89355 1217.76 8.31934 1218.43 7.9209C1219.1 7.5166 1219.87 7.31445 1220.74 7.31445C1222.02 7.31445 1223.06 7.72754 1223.86 8.55371C1224.66 9.37988 1225.09 10.4756 1225.16 11.8408L1225.17 12.3418C1225.17 13.2793 1224.98 14.1172 1224.62 14.8555C1224.26 15.5938 1223.75 16.165 1223.07 16.5693C1222.41 16.9736 1221.63 17.1758 1220.75 17.1758C1219.41 17.1758 1218.34 16.7305 1217.53 15.8398C1216.72 14.9434 1216.32 13.751 1216.32 12.2627V12.1572ZM1218.46 12.3418C1218.46 13.3203 1218.66 14.0879 1219.07 14.6445C1219.47 15.1953 1220.03 15.4707 1220.75 15.4707C1221.47 15.4707 1222.03 15.1895 1222.43 14.627C1222.84 14.0645 1223.04 13.2412 1223.04 12.1572C1223.04 11.1963 1222.83 10.4346 1222.41 9.87207C1222 9.30957 1221.44 9.02832 1220.74 9.02832C1220.04 9.02832 1219.48 9.30664 1219.07 9.86328C1218.66 10.4141 1218.46 11.2402 1218.46 12.3418ZM1229.24 17H1227.11V3.5L1229.24 3.5V17ZM1233.85 17H1231.71V3.5L1233.85 3.5V17ZM1240.37 17.1758C1239.02 17.1758 1237.92 16.751 1237.07 15.9014C1236.24 15.0459 1235.82 13.9092 1235.82 12.4912V12.2275C1235.82 11.2783 1236 10.4316 1236.36 9.6875C1236.73 8.9375 1237.25 8.35449 1237.91 7.93848C1238.57 7.52246 1239.31 7.31445 1240.12 7.31445C1241.42 7.31445 1242.42 7.72754 1243.12 8.55371C1243.83 9.37988 1244.18 10.5488 1244.18 12.0605V12.9219H1237.97C1238.04 13.707 1238.3 14.3281 1238.75 14.7852C1239.22 15.2422 1239.8 15.4707 1240.49 15.4707C1241.47 15.4707 1242.27 15.0752 1242.88 14.2842L1244.04 15.3828C1243.65 15.9512 1243.14 16.3936 1242.51 16.71C1241.87 17.0205 1241.16 17.1758 1240.37 17.1758ZM1240.12 9.02832C1239.53 9.02832 1239.05 9.2334 1238.69 9.64355C1238.33 10.0537 1238.11 10.625 1238.01 11.3574H1242.08V11.1992C1242.03 10.4844 1241.84 9.94531 1241.5 9.58203C1241.17 9.21289 1240.71 9.02832 1240.12 9.02832ZM1249.76 15.4707C1250.29 15.4707 1250.73 15.3154 1251.08 15.0049C1251.44 14.6943 1251.62 14.3105 1251.65 13.8535H1253.66C1253.64 14.4453 1253.45 14.999 1253.11 15.5146C1252.76 16.0244 1252.29 16.4287 1251.7 16.7275C1251.11 17.0264 1250.47 17.1758 1249.78 17.1758C1248.45 17.1758 1247.4 16.7451 1246.62 15.8838C1245.84 15.0225 1245.45 13.833 1245.45 12.3154V12.0957C1245.45 10.6484 1245.84 9.49121 1246.61 8.62402C1247.38 7.75098 1248.44 7.31445 1249.77 7.31445C1250.91 7.31445 1251.83 7.64551 1252.53 8.30762C1253.25 8.96387 1253.62 9.82813 1253.66 10.9004H1251.65C1251.62 10.3555 1251.44 9.90723 1251.08 9.55566C1250.74 9.2041 1250.3 9.02832 1249.76 9.02832C1249.07 9.02832 1248.53 9.28027 1248.16 9.78418C1247.78 10.2822 1247.59 11.041 1247.59 12.0605V12.4033C1247.59 13.4346 1247.77 14.2051 1248.14 14.7148C1248.51 15.2188 1249.05 15.4707 1249.76 15.4707ZM1257.95 5.17871V7.49023H1259.63V9.07227H1257.95V14.3809C1257.95 14.7441 1258.02 15.0078 1258.16 15.1719C1258.31 15.3301 1258.56 15.4092 1258.93 15.4092C1259.18 15.4092 1259.43 15.3799 1259.68 15.3213V16.9736C1259.19 17.1084 1258.72 17.1758 1258.27 17.1758C1256.63 17.1758 1255.81 16.2705 1255.81 14.46V9.07227H1254.25V7.49023L1255.81 7.49023V5.17871H1257.95ZM1265.45 17.1758C1264.1 17.1758 1263 16.751 1262.16 15.9014C1261.32 15.0459 1260.9 13.9092 1260.9 12.4912V12.2275C1260.9 11.2783 1261.08 10.4316 1261.45 9.6875C1261.82 8.9375 1262.33 8.35449 1262.99 7.93848C1263.66 7.52246 1264.39 7.31445 1265.21 7.31445C1266.5 7.31445 1267.5 7.72754 1268.21 8.55371C1268.91 9.37988 1269.27 10.5488 1269.27 12.0605V12.9219L1263.05 12.9219C1263.12 13.707 1263.38 14.3281 1263.84 14.7852C1264.3 15.2422 1264.88 15.4707 1265.58 15.4707C1266.56 15.4707 1267.35 15.0752 1267.97 14.2842L1269.12 15.3828C1268.74 15.9512 1268.23 16.3936 1267.59 16.71C1266.96 17.0205 1266.25 17.1758 1265.45 17.1758ZM1265.2 9.02832C1264.61 9.02832 1264.14 9.2334 1263.78 9.64355C1263.42 10.0537 1263.19 10.625 1263.09 11.3574H1267.16V11.1992C1267.11 10.4844 1266.92 9.94531 1266.59 9.58203C1266.25 9.21289 1265.79 9.02832 1265.2 9.02832ZM1270.53 12.1748C1270.53 10.71 1270.87 9.53516 1271.55 8.65039C1272.23 7.75977 1273.14 7.31445 1274.29 7.31445C1275.29 7.31445 1276.11 7.66602 1276.73 8.36914V3.5L1278.87 3.5V17H1276.93L1276.83 16.0156C1276.19 16.7891 1275.34 17.1758 1274.27 17.1758C1273.16 17.1758 1272.25 16.7275 1271.56 15.8311C1270.88 14.9346 1270.53 13.7158 1270.53 12.1748ZM1272.67 12.3594C1272.67 13.3262 1272.85 14.082 1273.22 14.627C1273.6 15.166 1274.13 15.4355 1274.81 15.4355C1275.69 15.4355 1276.33 15.0459 1276.73 14.2666V10.2061C1276.34 9.44434 1275.71 9.06348 1274.83 9.06348C1274.14 9.06348 1273.61 9.33887 1273.23 9.88965C1272.86 10.4346 1272.67 11.2578 1272.67 12.3594Z" fill="white"/>
<g filter="url(#filter0_b_1_7115)">
<line x1="190" y1="11.5" x2="1051" y2="11.4999" stroke="#E5E5E5"/>
</g>
<defs>
<filter id="filter0_b_1_7115" x="160" y="-19" width="921" height="61" filterUnits="userSpaceOnUse" color-interpolation-filters="sRGB">
<feFlood flood-opacity="0" result="BackgroundImageFix"/>
<feGaussianBlur in="BackgroundImage" stdDeviation="15"/>
<feComposite in2="SourceAlpha" operator="in" result="effect1_backgroundBlur_1_7115"/>
<feBlend mode="normal" in="SourceGraphic" in2="effect1_backgroundBlur_1_7115" result="shape"/>
</filter>
</defs>
</svg>
